<?xml version="1.0" standalone="no"?>
<!DOCTYPE svg PUBLIC "-//W3C//DTD SVG 1.1//EN" "http://www.w3.org/Graphics/SVG/1.1/DTD/svg11.dtd" >
<svg xmlns="http://www.w3.org/2000/svg" xmlns:xlink="http://www.w3.org/1999/xlink" version="1.1">
<metadata>
Created by FontForge 20170731 at Sat Dec  5 01:01:55 2015
 By Aleksey,,,
(c)2015 Now Typeface is a trademark of Alfredo Marco Pradil. All rights reserved.
</metadata>
<defs>
<font id="Now-Bold" horiz-adv-x="0" >
  <font-face 
    font-family="Now"
    font-weight="700"
    font-stretch="normal"
    units-per-em="800"
    panose-1="0 0 8 0 0 0 0 0 0 0"
    ascent="640"
    descent="-160"
    x-height="400"
    cap-height="600"
    bbox="-623 -262 951 885"
    underline-thickness="50"
    underline-position="-200"
    unicode-range="U+0020-FB02"
  />
<missing-glyph horiz-adv-x="515" 
d="M71 0v600h372v-600h-372zM167 95h181v410h-181v-410z" />
    <glyph glyph-name="fi" unicode="fi" horiz-adv-x="551" 
d="M206 520v-120h95v-99h-95v-301h-128v301h-67v99h67v135q0 63 46.5 106.5t110.5 43.5q47 0 64 -12v-100h-48q-20 0 -32.5 -14t-12.5 -39zM426 467q-28 0 -49 20.5t-21 49.5t20.5 49.5t49.5 20.5t49.5 -20.5t20.5 -49.5t-21 -49.5t-49 -20.5zM362 0v400h127v-400h-127z" />
    <glyph glyph-name="fl" unicode="fl" horiz-adv-x="547" 
d="M206 520v-120h95v-99h-95v-301h-128v301h-67v99h67v135q0 63 46.5 106.5t110.5 43.5q47 0 64 -12v-100h-48q-20 0 -32.5 -14t-12.5 -39zM360 685h128v-685h-128v685z" />
    <glyph glyph-name="f_t.liga" unicode="ft" horiz-adv-x="568" 
d="M549 301h-96v-143q0 -25 13 -39.5t33 -14.5h48v-99q-19 -13 -64 -13q-64 0 -110.5 44t-46.5 107v158h-120v-301h-128v301h-67v99h67v135q0 63 46.5 106.5t110.5 43.5q47 0 64 -12v-100h-48q-20 0 -32.5 -14t-12.5 -39v-120h120v154h127v-154h96v-99z" />
    <glyph glyph-name=".notdef" horiz-adv-x="515" 
d="M71 0v600h372v-600h-372zM167 95h181v410h-181v-410z" />
    <glyph glyph-name=".null" 
 />
    <glyph glyph-name="nonmarkingreturn" horiz-adv-x="266" 
 />
    <glyph glyph-name="space" unicode=" " horiz-adv-x="240" 
 />
    <glyph glyph-name="exclam" unicode="!" horiz-adv-x="283" 
d="M93 208l-15 407h127l-16 -407h-96zM141 -8q-29 0 -49.5 21t-20.5 49q0 29 20.5 50t49.5 21q30 0 50.5 -21t20.5 -50t-20.5 -49.5t-50.5 -20.5z" />
    <glyph glyph-name="quotedbl" unicode="&#x22;" horiz-adv-x="435" 
d="M87 336l-16 272h120l-16 -272h-88zM261 336l-16 272h119l-15 -272h-88z" />
    <glyph glyph-name="numbersign" unicode="#" horiz-adv-x="686" 
d="M147 0l18 130h-113l12 89h113l22 147h-114l15 88h111l19 133h89l-18 -133h130l19 133h89l-19 -133h114l-14 -88h-112l-21 -147h112l-12 -89h-112l-19 -130h-89l18 130h-132l-17 -130h-89zM267 219h130l22 147h-132z" />
    <glyph glyph-name="dollar" unicode="$" horiz-adv-x="474" 
d="M451 170q0 -68 -43.5 -114t-112.5 -59v-61h-113v63q-114 27 -166 127l109 68q37 -78 120 -78q34 0 54 15t20 40q0 28 -28.5 47t-69.5 32t-81.5 31t-69 55.5t-28.5 94.5q0 70 39.5 113.5t100.5 57.5v62h113v-64q74 -20 124 -77l-88 -84q-47 52 -98 52q-25 0 -41.5 -13
t-16.5 -37t20.5 -41t51 -26t66.5 -24.5t66.5 -34t51 -56t20.5 -89.5z" />
    <glyph glyph-name="percent" unicode="%" horiz-adv-x="691" 
d="M174 313q-55 0 -93.5 43t-38.5 104t38.5 104.5t93.5 43.5q54 0 92 -43.5t38 -104.5t-38 -104t-92 -43zM78 0l402 600h132l-403 -600h-131zM174 408q13 0 24 15.5t11 36.5q0 22 -11 37.5t-24 15.5q-14 0 -25 -15.5t-11 -37.5q0 -21 11 -36.5t25 -15.5zM517 -8
q-55 0 -93 43t-38 105q0 61 38 104t93 43t93 -43t38 -104q0 -62 -38 -105t-93 -43zM517 87q14 0 25 15.5t11 37.5q0 21 -11 36.5t-25 15.5t-24.5 -15.5t-10.5 -36.5q0 -22 10.5 -37.5t24.5 -15.5z" />
    <glyph glyph-name="ampersand" unicode="&#x26;" horiz-adv-x="580" 
d="M558 349v-106h-65v-53q0 -83 -59 -137t-151 -54q-89 0 -149 49.5t-60 124.5q0 74 58 126q-59 54 -59 134q0 73 48 122t118 44h126v-112h-102q-25 -2 -43.5 -19t-18.5 -44q0 -31 24 -53t59 -22h81v86h128v-86h65zM281 111q39 0 61.5 22t22.5 57v53h-97q-30 0 -52 -20.5
t-22 -47.5q0 -28 25.5 -46t61.5 -18z" />
    <glyph glyph-name="quotesingle" unicode="'" horiz-adv-x="262" 
d="M87 368l-16 240h120l-16 -240h-88z" />
    <glyph glyph-name="parenleft" unicode="(" horiz-adv-x="346" 
d="M303 -237q-54 0 -97.5 25t-78 78.5t-53.5 146.5t-19 221t19 222t53.5 148t78 79t97.5 25v-91q-136 0 -136 -383q0 -378 136 -380v-91z" />
    <glyph glyph-name="parenright" unicode=")" horiz-adv-x="346" 
d="M43 -237v91q136 2 136 380q0 383 -136 383v91q73 0 126 -43.5t87 -152t34 -278.5q0 -128 -18.5 -221t-53 -146.5t-78 -78.5t-97.5 -25z" />
    <glyph glyph-name="asterisk" unicode="*" horiz-adv-x="307" 
d="M123 379l-53 32l47 62l-78 -11v62l78 -10l-47 62l53 32l30 -74l31 74l54 -32l-48 -62l78 10v-62l-78 11l48 -62l-54 -32l-31 73z" />
    <glyph glyph-name="plus" unicode="+" horiz-adv-x="639" 
d="M271 0v199h-200v98h200v199h97v-199h199v-98h-199v-199h-97z" />
    <glyph glyph-name="comma" unicode="," horiz-adv-x="246" 
d="M81 -142h-78l95 247h123z" />
    <glyph glyph-name="hyphen" unicode="-" horiz-adv-x="405" 
d="M63 164v88h280v-88h-280z" />
    <glyph glyph-name="period" unicode="." horiz-adv-x="271" 
d="M135 -8q-29 0 -50.5 21.5t-21.5 51.5t21.5 51.5t50.5 21.5q30 0 52 -21.5t22 -51.5t-22 -51.5t-52 -21.5z" />
    <glyph glyph-name="slash" unicode="/" horiz-adv-x="561" 
d="M-16 -240l474 925h119l-474 -925h-119z" />
    <glyph glyph-name="zero" unicode="0" horiz-adv-x="548" 
d="M274 -8q-110 0 -167.5 83.5t-57.5 224.5t57.5 224.5t167.5 83.5q108 0 166 -83.5t58 -224.5t-58 -224.5t-166 -83.5zM274 105q96 0 96 195t-96 195q-97 0 -97 -195t97 -195z" />
    <glyph glyph-name="one" unicode="1" horiz-adv-x="334" 
d="M116 0v487h-91v113h219v-600h-128z" />
    <glyph glyph-name="two" unicode="2" horiz-adv-x="458" 
d="M218 113h208v-113h-440l235 301q45 57 57.5 80t12.5 45q0 37 -19.5 53t-46.5 16q-31 0 -50 -21t-15 -55h-124q-7 82 51.5 136t143.5 54q78 0 131 -48.5t53 -122.5q0 -51 -20.5 -90.5t-82.5 -117.5z" />
    <glyph glyph-name="three" unicode="3" horiz-adv-x="492" 
d="M255 359q82 1 134.5 -44.5t52.5 -127.5q0 -81 -58.5 -138t-144.5 -57q-82 0 -140 50.5t-58 123.5l127 2q0 -24 21 -40t50 -16q35 0 56 22.5t21 56.5t-21 55t-54 21h-173h-6l168 220h-189v113h406z" />
    <glyph glyph-name="four" unicode="4" horiz-adv-x="513" 
d="M472 240v-114h-49v-126h-128v126h-284l250 474h162v-360h49zM172 240h123v243z" />
    <glyph glyph-name="five" unicode="5" horiz-adv-x="509" 
d="M281 406q82 0 134.5 -57t52.5 -143q0 -93 -63.5 -153.5t-162.5 -60.5q-57 0 -115.5 22t-91.5 56l9 120h23q64 -81 168 -81q47 0 76 26t29 66q0 39 -26 65.5t-65 26.5q-55 0 -94 -42l-101 61l26 286h348v-113h-247l-10 -120q46 41 110 41z" />
    <glyph glyph-name="six" unicode="6" horiz-adv-x="531" 
d="M303 412q78 -11 132.5 -70.5t54.5 -138.5q-1 -89 -66.5 -149.5t-157.5 -61.5q-93 0 -158.5 61t-65.5 150q0 61 47 132l192 265h146l-143 -187q13 0 19 -1zM266 102q44 0 72 29t27 71q0 44 -27.5 73.5t-71.5 29.5q-44 -1 -71 -30t-27 -73q-1 -43 26.5 -72t71.5 -28z" />
    <glyph glyph-name="seven" unicode="7" horiz-adv-x="453" 
d="M27 600h414v-94l-268 -506h-140l268 487h-274v113z" />
    <glyph glyph-name="eight" unicode="8" horiz-adv-x="486" 
d="M369 334q87 -52 87 -152q0 -81 -60.5 -135.5t-152.5 -54.5t-152.5 54.5t-60.5 135.5q0 100 87 152q-51 45 -51 114t50 114.5t127 45.5q76 0 126 -45.5t50 -114.5t-50 -114zM174 437q0 -30 20 -50t49 -20t49 20t20 50q0 29 -20 49t-49 20t-49 -20t-20 -49zM243 104
q36 0 60 25.5t24 62.5t-24 60.5t-60 23.5t-60 -23.5t-24 -60.5t24 -62.5t60 -25.5z" />
    <glyph glyph-name="nine" unicode="9" horiz-adv-x="531" 
d="M266 608q93 0 158.5 -61t65.5 -150q0 -61 -47 -132l-192 -265h-146l145 187q-14 0 -21 1q-79 11 -133 70.5t-54 138.5q0 89 66 149.5t158 61.5zM266 295q44 0 71.5 29.5t26.5 73.5q0 43 -27.5 72t-70.5 28q-44 0 -72 -28.5t-28 -71.5q1 -44 28.5 -73t71.5 -30z" />
    <glyph glyph-name="colon" unicode=":" horiz-adv-x="288" 
d="M144 267q-29 0 -49.5 21t-20.5 50q0 28 21 49t49 21t49 -21t21 -49q0 -29 -20.5 -50t-49.5 -21zM144 -8q-28 0 -49 21t-21 49q0 29 20.5 50t49.5 21t49.5 -21t20.5 -50q0 -28 -21 -49t-49 -21z" />
    <glyph glyph-name="semicolon" unicode=";" horiz-adv-x="296" 
d="M147 267q-29 0 -49.5 21t-20.5 50q0 28 20.5 49t49.5 21t49.5 -21t20.5 -49q0 -29 -20.5 -50t-49.5 -21zM99 -142h-78l95 247h123z" />
    <glyph glyph-name="less" unicode="&#x3c;" horiz-adv-x="584" 
d="M513 579v-104l-346 -174l346 -175v-105l-442 223v113z" />
    <glyph glyph-name="equal" unicode="=" horiz-adv-x="575" 
d="M47 252v80h480v-80h-480zM47 92v80h480v-80h-480z" />
    <glyph glyph-name="greater" unicode="&#x3e;" horiz-adv-x="584" 
d="M71 579l442 -222v-113l-442 -223v105l346 175l-346 174v104z" />
    <glyph glyph-name="question" unicode="?" horiz-adv-x="522" 
d="M218 181v50q0 40 10.5 66t27 36t35 19.5t35 16t27 24t10.5 45.5q0 32 -25.5 54t-62.5 22q-45 0 -70.5 -30t-17.5 -73h-112q-9 90 49 151.5t151 61.5q84 0 141.5 -54t57.5 -132q0 -39 -10.5 -67.5t-26.5 -42.5t-34 -25t-34 -17.5t-26.5 -18.5t-10.5 -29v-57h-114zM278 -8
q-29 0 -50 20.5t-21 49.5t21 50t50 21t49.5 -21t20.5 -50t-20.5 -49.5t-49.5 -20.5z" />
    <glyph glyph-name="at" unicode="@" horiz-adv-x="503" 
d="M432 119h-73v15q-30 -24 -69 -24q-41 0 -69.5 29t-28.5 72q0 42 28.5 71t68.5 29q41 0 70 -26v8q0 30 -28 51.5t-68 21.5q-59 0 -101 -42.5t-42 -102.5q0 -63 45 -105.5t110 -42.5h157v-73h-157q-96 0 -162 64t-66 157q0 91 63 154.5t153 63.5q71 0 120 -42t49 -104v-174
zM321 171q25 0 38 20v40q-13 20 -38 20q-19 0 -31.5 -11.5t-12.5 -28.5t12.5 -28.5t31.5 -11.5z" />
    <glyph glyph-name="A" unicode="A" horiz-adv-x="554" 
d="M426 0l-37 113h-224l-37 -113h-141l216 600h148l216 -600h-141zM200 223h154l-77 238z" />
    <glyph glyph-name="B" unicode="B" horiz-adv-x="543" 
d="M420 304q94 -37 94 -140q0 -77 -50 -120.5t-128 -43.5h-277v600h254q78 0 129.5 -45t51.5 -122q0 -90 -74 -129zM362 419q0 27 -19 45.5t-46 18.5h-106v-129h106q27 0 46 19.5t19 45.5zM317 117q28 0 46.5 18.5t18.5 45.5t-19 46t-46 19h-126v-129h126z" />
    <glyph glyph-name="C" unicode="C" horiz-adv-x="644" 
d="M345 -8q-127 0 -217.5 90t-90.5 218t90.5 218t217.5 90q88 0 161 -45t112 -120l-114 -59q-22 43 -64.5 69t-94.5 26q-76 0 -127 -51.5t-51 -127.5t51 -127.5t127 -51.5q52 0 94.5 26t64.5 69l114 -59q-39 -75 -112 -120t-161 -45z" />
    <glyph glyph-name="D" unicode="D" horiz-adv-x="594" 
d="M59 0v600h198q124 0 212 -88t88 -212t-88 -212t-212 -88h-198zM191 117h65q71 0 120 52.5t49 130.5t-49 130.5t-120 52.5h-65v-366z" />
    <glyph glyph-name="E" unicode="E" horiz-adv-x="466" 
d="M425 484h-229v-126h196v-116h-196v-126h229v-116h-361v600h361v-116z" />
    <glyph glyph-name="F" unicode="F" horiz-adv-x="435" 
d="M425 484h-229v-126h196v-116h-196v-242h-132v600h361v-116z" />
    <glyph glyph-name="G" unicode="G" horiz-adv-x="692" 
d="M345 329h309v-29q0 -128 -90 -218t-218 -90t-218 90t-90 218t90 218t218 90q87 0 160 -45t113 -120l-114 -59q-23 44 -65 69.5t-94 25.5q-76 0 -127.5 -51.5t-51.5 -127.5t51.5 -127.5t127.5 -51.5q55 0 99 28.5t65 76.5h-165v103z" />
    <glyph glyph-name="H" unicode="H" horiz-adv-x="626" 
d="M435 600h131v-600h-131v242h-244v-242h-132v600h132v-241h244v241z" />
    <glyph glyph-name="I" unicode="I" horiz-adv-x="259" 
d="M64 0v600h132v-600h-132z" />
    <glyph glyph-name="J" unicode="J" horiz-adv-x="455" 
d="M405 600v-446q0 -75 -50 -118.5t-141 -43.5q-81 0 -129.5 34.5t-58.5 96.5l130 38q4 -23 20 -38t38 -15q25 0 42 18t17 45v312h-197v117h329z" />
    <glyph glyph-name="K" unicode="K" horiz-adv-x="589" 
d="M434 0l-224 274h-19v-274h-132v600h132v-212h23l196 212h170l-259 -267l289 -333h-176z" />
    <glyph glyph-name="L" unicode="L" horiz-adv-x="392" 
d="M191 117h199v-117h-331v600h132v-483z" />
    <glyph glyph-name="M" unicode="M" horiz-adv-x="783" 
d="M582 600h142v-600h-132v357l-163 -357h-76l-162 358v-358h-132v600h143l189 -415z" />
    <glyph glyph-name="N" unicode="N" horiz-adv-x="681" 
d="M490 600h131v-600h-136l-294 398v-398h-132v600h136l295 -397v397z" />
    <glyph glyph-name="O" unicode="O" horiz-adv-x="691" 
d="M345 -8q-127 0 -217.5 90t-90.5 218t90.5 218t217.5 90q128 0 218 -90t90 -218t-90 -218t-218 -90zM345 121q76 0 127.5 51.5t51.5 127.5t-51.5 127.5t-127.5 51.5t-127 -51.5t-51 -127.5t51 -127.5t127 -51.5z" />
    <glyph glyph-name="P" unicode="P" horiz-adv-x="497" 
d="M314 600q75 0 127 -53t52 -128t-51.5 -125.5t-127.5 -50.5h-123v-243h-132v600h255zM293 352q32 0 53 18t21 48q0 29 -21 47.5t-53 18.5h-102v-132h102z" />
    <glyph glyph-name="Q" unicode="Q" horiz-adv-x="692" 
d="M676 95v-95h-261q-35 -8 -70 -8q-127 0 -217.5 90t-90.5 218t90.5 218t217.5 90q128 0 218 -90t90 -218q0 -71 -30 -133t-82 -105l75 33h60zM167 300q0 -76 51 -127.5t127 -51.5t127.5 51.5t51.5 127.5t-51.5 127.5t-127.5 51.5t-127 -51.5t-51 -127.5z" />
    <glyph glyph-name="R" unicode="R" horiz-adv-x="535" 
d="M372 247l168 -247h-148l-148 232h-53v-232h-132v600h255q77 0 128 -53.5t51 -130.5q0 -61 -33.5 -107t-87.5 -62zM294 341q32 0 52.5 20t20.5 51t-20.5 51t-52.5 20h-103v-142h103z" />
    <glyph glyph-name="S" unicode="S" horiz-adv-x="474" 
d="M244 -8q-76 0 -136.5 37.5t-91.5 96.5l109 68q37 -78 120 -78q34 0 54 15t20 40q0 28 -28.5 47t-69.5 32t-81.5 31t-69 55.5t-28.5 94.5q0 85 57 131t135 46q112 0 185 -85l-88 -84q-47 52 -98 52q-25 0 -41.5 -13t-16.5 -37t20.5 -41t51 -26t66.5 -24.5t66.5 -34t51 -56
t20.5 -89.5q0 -81 -60 -129.5t-147 -48.5z" />
    <glyph glyph-name="T" unicode="T" horiz-adv-x="424" 
d="M429 600v-117h-151v-483h-131v483h-152v117h434z" />
    <glyph glyph-name="U" unicode="U" horiz-adv-x="611" 
d="M305 -8q-105 0 -177 57.5t-72 142.5v408h132v-383q0 -46 33.5 -77t83.5 -31t84 31t34 77v383h132v-408q0 -85 -72 -142.5t-178 -57.5z" />
    <glyph glyph-name="V" unicode="V" horiz-adv-x="554" 
d="M420 600h147l-216 -600h-148l-216 600h147l143 -429z" />
    <glyph glyph-name="W" unicode="W" horiz-adv-x="822" 
d="M697 600h139l-164 -600h-152l-109 422l-109 -422h-152l-164 600h139l108 -418l114 418h110h18l115 -416z" />
    <glyph glyph-name="X" unicode="X" horiz-adv-x="532" 
d="M544 0h-151l-127 201l-127 -201h-152l208 309l-196 291h151l116 -182l116 182h151l-196 -290z" />
    <glyph glyph-name="Y" unicode="Y" horiz-adv-x="527" 
d="M539 600l-209 -317v-283h-132v282l-211 318h149l128 -203l128 203h147z" />
    <glyph glyph-name="Z" unicode="Z" horiz-adv-x="512" 
d="M483 600l-253 -483h253v-117h-460l255 483h-230v117h435z" />
    <glyph glyph-name="bracketleft" unicode="[" horiz-adv-x="329" 
d="M59 -200v906h214v-70h-103v-766h103v-70h-214z" />
    <glyph glyph-name="backslash" unicode="\" horiz-adv-x="561" 
d="M458 -240l-474 925h119l474 -925h-119z" />
    <glyph glyph-name="bracketright" unicode="]" horiz-adv-x="329" 
d="M56 -200v70h103v766h-103v70h213v-906h-213z" />
    <glyph glyph-name="asciicircum" unicode="^" horiz-adv-x="605" 
d="M581 158h-105l-174 345l-173 -345h-106l223 442h113z" />
    <glyph glyph-name="underscore" unicode="_" horiz-adv-x="543" 
d="M31 -87v87h480v-87h-480z" />
    <glyph glyph-name="grave" unicode="`" horiz-adv-x="77" 
d="M222 451h-84l-125 149h121z" />
    <glyph glyph-name="a" unicode="a" horiz-adv-x="538" 
d="M505 104h18v-104q-18 -8 -34 -8q-82 0 -123 68q-52 -68 -137 -68q-83 0 -140.5 60.5t-57.5 147.5t57.5 147.5t140.5 60.5q66 0 114 -43v35h127v-257q0 -39 35 -39zM254 105q39 0 67 27.5t28 67.5t-28 67.5t-67 27.5q-40 0 -67.5 -27.5t-27.5 -67.5t27.5 -67.5t67.5 -27.5
z" />
    <glyph glyph-name="b" unicode="b" horiz-adv-x="529" 
d="M301 408q82 0 139.5 -60.5t57.5 -147.5t-57.5 -147.5t-139.5 -60.5q-66 0 -114 43v-36l-128 1v685h128v-320q48 43 114 43zM276 105q40 0 67.5 27.5t27.5 67.5t-27.5 67.5t-67.5 27.5t-67.5 -27.5t-27.5 -67.5t27.5 -67.5t67.5 -27.5z" />
    <glyph glyph-name="c" unicode="c" horiz-adv-x="496" 
d="M254 -8q-100 0 -161.5 58.5t-61.5 149.5t61.5 149.5t161.5 58.5q89 0 147.5 -47t71.5 -123h-132q-21 55 -87 57q-41 -1 -68 -28t-27 -67t27 -67t68 -28q66 2 87 57h132q-13 -76 -71.5 -123t-147.5 -47z" />
    <glyph glyph-name="d" unicode="d" horiz-adv-x="529" 
d="M343 685h127v-685l-127 -1v36q-48 -43 -114 -43q-83 0 -140.5 60.5t-57.5 147.5t57.5 147.5t140.5 60.5q66 0 114 -43v320zM254 105q39 0 67 27.5t28 67.5t-28 67.5t-67 27.5q-40 0 -67.5 -27.5t-27.5 -67.5t27.5 -67.5t67.5 -27.5z" />
    <glyph glyph-name="e" unicode="e" horiz-adv-x="496" 
d="M466 201v-22h-306q8 -92 93 -92q66 0 84 51h123q-15 -67 -69 -106.5t-136 -39.5q-101 0 -162.5 57t-61.5 151q0 93 61.5 151t158.5 58t156 -57t59 -151zM253 311q-64 0 -85 -55h166q-20 55 -81 55z" />
    <glyph glyph-name="f" unicode="f" horiz-adv-x="301" 
d="M301 400v-99h-95v-301h-128v301h-67v99h67v135q0 63 46.5 106.5t110.5 43.5q47 0 64 -12v-100h-48q-20 0 -32.5 -14t-12.5 -39v-120h95z" />
    <glyph glyph-name="g" unicode="g" horiz-adv-x="543" 
d="M482 400l1 -404q0 -111 -62 -174t-171 -63q-78 0 -133 33.5t-80 95.5l117 47q11 -30 36.5 -47.5t59.5 -17.5q49 0 77.5 32t28.5 87v53q-53 -50 -127 -50q-83 0 -140.5 60.5t-57.5 147.5q0 88 57.5 148t140.5 60q72 0 125 -48v40h128zM261 105q40 0 68 27.5t28 67.5
t-28 67.5t-68 27.5t-67.5 -27.5t-27.5 -67.5t27.5 -67.5t67.5 -27.5z" />
    <glyph glyph-name="h" unicode="h" horiz-adv-x="494" 
d="M299 408q61 0 103 -44.5t42 -110.5v-253h-128v232q0 27 -17 45t-44 18q-28 0 -48 -21t-20 -48v-226h-128v685h128v-330q45 53 112 53z" />
    <glyph glyph-name="i" unicode="i" horiz-adv-x="250" 
d="M125 467q-29 0 -49.5 20.5t-20.5 49.5t20.5 49.5t49.5 20.5t49.5 -20.5t20.5 -49.5t-20.5 -49.5t-49.5 -20.5zM61 0v400h127v-400h-127z" />
    <glyph glyph-name="j" unicode="j" horiz-adv-x="250" 
d="M125 467q-29 0 -49.5 20.5t-20.5 49.5t20.5 49.5t49.5 20.5t49.5 -20.5t20.5 -49.5t-20.5 -49.5t-49.5 -20.5zM32 -240q-45 0 -65 13v99h49q20 0 32.5 15t12.5 39v474h127v-489q0 -63 -46 -107t-110 -44z" />
    <glyph glyph-name="k" unicode="k" horiz-adv-x="481" 
d="M499 0h-166l-141 184v-184h-127v685h127v-429l139 144h153l-175 -181z" />
    <glyph glyph-name="l" unicode="l" horiz-adv-x="246" 
d="M59 0v685h128v-685h-128z" />
    <glyph glyph-name="m" unicode="m" horiz-adv-x="724" 
d="M536 408q65 0 101 -42t36 -113v-253h-127v232q0 27 -16.5 45t-42.5 18q-27 0 -42 -19.5t-15 -43.5v-232h-128v232q0 27 -16 45t-42 18q-27 0 -42 -19.5t-15 -43.5v-232h-128v400h128v-49q42 57 109 57q76 0 114 -70q40 70 126 70z" />
    <glyph glyph-name="n" unicode="n" horiz-adv-x="495" 
d="M301 408q60 0 101.5 -44.5t41.5 -110.5v-253h-127v232q0 27 -17.5 45t-45.5 18t-47.5 -18t-19.5 -45v-232h-128v400h128v-49q46 57 114 57z" />
    <glyph glyph-name="o" unicode="o" horiz-adv-x="508" 
d="M254 -8q-100 0 -161.5 58.5t-61.5 149.5t61.5 149.5t161.5 58.5q99 0 160.5 -58.5t61.5 -149.5t-61.5 -149.5t-160.5 -58.5zM254 105q41 1 68 28t27 67t-27 67t-68 28q-41 -1 -68 -28t-27 -67t27 -67t68 -28z" />
    <glyph glyph-name="p" unicode="p" horiz-adv-x="529" 
d="M301 408q82 0 139.5 -60.5t57.5 -147.5t-57.5 -147.5t-139.5 -60.5q-66 0 -114 43v-276l-128 1v640l128 -1v-34q48 43 114 43zM276 105q40 0 67.5 27.5t27.5 67.5t-27.5 67.5t-67.5 27.5t-67.5 -27.5t-27.5 -67.5t27.5 -67.5t67.5 -27.5z" />
    <glyph glyph-name="q" unicode="q" horiz-adv-x="529" 
d="M516 -128h37v-104q-26 -8 -53 -8q-64 0 -110.5 44t-46.5 107v124q-48 -43 -114 -43q-83 0 -140.5 60.5t-57.5 147.5t57.5 147.5t140.5 60.5q66 0 114 -43v35h127v-474q0 -25 13 -39.5t33 -14.5zM254 105q39 0 67 27.5t28 67.5t-28 67.5t-67 27.5q-40 0 -67.5 -27.5
t-27.5 -67.5t27.5 -67.5t67.5 -27.5z" />
    <glyph glyph-name="r" unicode="r" horiz-adv-x="330" 
d="M299 408q21 0 33 -4v-113q-18 4 -37 4q-48 0 -78 -27.5t-30 -76.5v-191h-128v400h128v-55q42 63 112 63z" />
    <glyph glyph-name="s" unicode="s" horiz-adv-x="352" 
d="M188 -8q-56 0 -104 25.5t-65 70.5l94 47q22 -42 67 -42q35 0 35 25q0 19 -48 38q-27 10 -40.5 16t-38 21.5t-36 37t-11.5 49.5q0 53 41.5 90.5t107.5 37.5q82 0 135 -53l-64 -72q-23 29 -62 29q-32 0 -32 -23q0 -10 9 -16.5t34 -16.5q26 -10 44 -19.5t38 -25t30.5 -38.5
t10.5 -51q0 -57 -39.5 -93.5t-105.5 -36.5z" />
    <glyph glyph-name="t" unicode="t" horiz-adv-x="320" 
d="M300 301h-95v-143q0 -25 13 -39.5t33 -14.5h48v-99q-19 -13 -64 -13q-64 0 -110.5 44t-46.5 107v158h-67v99h67v154h127v-154h95v-99z" />
    <glyph glyph-name="u" unicode="u" horiz-adv-x="477" 
d="M238 -8q-90 0 -139 43t-49 118v247h128v-230q0 -28 17 -46.5t43 -18.5t43.5 18.5t17.5 46.5v230h127v-247q0 -75 -49 -118t-139 -43z" />
    <glyph glyph-name="v" unicode="v" horiz-adv-x="432" 
d="M300 400h137l-162 -400h-120l-160 400h136l85 -263z" />
    <glyph glyph-name="w" unicode="w" horiz-adv-x="684" 
d="M546 400h142l-136 -400h-135l-75 226l-75 -226h-134l-138 400h145l67 -265l85 265h100l86 -266z" />
    <glyph glyph-name="x" unicode="x" horiz-adv-x="481" 
d="M486 400l-169 -201l169 -199h-153l-92 109l-92 -109h-154l169 200l-169 200h152l93 -110l93 110h153z" />
    <glyph glyph-name="y" unicode="y" horiz-adv-x="454" 
d="M326 400h132l-256 -640h-134l94 231l-167 409h133l100 -265z" />
    <glyph glyph-name="z" unicode="z" horiz-adv-x="391" 
d="M377 400l-168 -294h162v-106h-350l167 294h-146v106h335z" />
    <glyph glyph-name="braceleft" unicode="{" horiz-adv-x="298" 
d="M203 -262q-44 0 -74 37t-30 91v193q0 63 -10.5 82.5t-49.5 35.5v74q38 16 49 36t11 82v193q0 54 30 91.5t74 37.5h58v-73h-10q-20 0 -27.5 -0.5t-16 -5t-10.5 -14.5t-2 -28v-213q0 -98 -42 -143q42 -45 42 -143v-219q0 -25 11.5 -32.5t54.5 -7.5v-74h-58z" />
    <glyph glyph-name="bar" unicode="|" horiz-adv-x="260" 
d="M90 -120v720h79v-720h-79z" />
    <glyph glyph-name="braceright" unicode="}" horiz-adv-x="298" 
d="M37 -262v74q43 0 54 7.5t11 32.5v219q0 97 43 143q-43 46 -43 143v213q0 18 -2 28t-10 14.5t-15.5 5t-27.5 0.5h-10v73h58q44 0 73.5 -37.5t29.5 -91.5v-193q0 -62 11 -82t49 -36v-74q-38 -16 -49 -36t-11 -82v-193q0 -54 -29.5 -91t-73.5 -37h-58z" />
    <glyph glyph-name="asciitilde" unicode="~" horiz-adv-x="472" 
d="M317 120q-15 0 -30 3.5t-25 8.5t-21.5 13t-17 13t-14 14t-10.5 10q-18 17 -34 17q-24 0 -36 -21t-13 -52h-87q-4 72 33.5 116.5t104.5 44.5q35 0 58.5 -13.5t45.5 -43.5q19 -25 38 -25q21 0 35 20t12 53h86q7 -67 -29 -112.5t-96 -45.5z" />
    <glyph glyph-name="exclamdown" unicode="&#xa1;" horiz-adv-x="283" 
d="M141 259q-29 0 -49.5 21t-20.5 50q0 28 20.5 49t49.5 21q30 0 50.5 -20.5t20.5 -49.5t-20.5 -50t-50.5 -21zM78 -240l15 432h96l16 -432h-127z" />
    <glyph glyph-name="cent" unicode="&#xa2;" horiz-adv-x="400" 
d="M261 377q-40 0 -68 -28t-28 -69t28 -69t68 -28q55 0 84 25v-122q-36 -13 -74 -14v-73h-74v81q-71 20 -115.5 75t-44.5 125t44.5 125t115.5 75v81h74v-73q38 -1 74 -14v-121q-29 24 -84 24z" />
    <glyph glyph-name="sterling" unicode="&#xa3;" horiz-adv-x="526" 
d="M187 88h304v-88h-399v250h-64v81h64v73q0 89 56 146.5t143 57.5q68 0 124.5 -45t69.5 -112l-93 -40q1 42 -29.5 71.5t-71.5 29.5q-48 0 -76 -29t-28 -79v-73h149v-81h-149v-162z" />
    <glyph glyph-name="currency" unicode="&#xa4;" horiz-adv-x="539" 
d="M124 77l-66 70l42 43q-28 46 -28 100.5t28 100.5l-42 42l67 70l44 -44q46 28 100.5 28t100.5 -28l43 43l68 -68l-42 -42q28 -46 28 -101t-28 -102l42 -42l-67 -70l-44 44q-46 -28 -101 -28t-101 28zM196 218q31 -30 73.5 -30t72.5 30q29 30 29 72.5t-30 71.5
q-29 30 -71.5 30t-72.5 -30q-29 -30 -29.5 -72.5t28.5 -71.5z" />
    <glyph glyph-name="yen" unicode="&#xa5;" horiz-adv-x="579" 
d="M547 600l-193 -292h128v-79h-137v-57h137v-74h-137v-98h-111v98h-136v74h136v57h-137v79h127l-193 292h118l141 -221l140 221h117z" />
    <glyph glyph-name="brokenbar" unicode="&#xa6;" horiz-adv-x="260" 
d="M90 312v288h79v-288h-79zM90 -120v288h79v-288h-79z" />
    <glyph glyph-name="section" unicode="&#xa7;" horiz-adv-x="528" 
d="M449 213q30 -30 30 -74q0 -58 -62.5 -97.5t-148.5 -39.5q-70 0 -129.5 27.5t-86.5 70.5l77 48q16 -27 54.5 -43.5t89.5 -16.5q48 0 80.5 14t32.5 38q0 22 -32 35t-77.5 21.5t-90.5 21t-77 41.5t-32 73q0 43 30 74q-30 27 -30 70q0 61 55.5 96.5t130.5 35.5
q52 0 100.5 -17t77.5 -46l-62 -52q-40 34 -110 34q-41 0 -70 -12.5t-29 -33.5q0 -22 32 -35t77 -21.5t90.5 -21t77.5 -42t32 -75.5q0 -40 -30 -73zM170 335q0 -14 11.5 -24t33.5 -16.5t45 -11.5t55 -12.5t54 -14.5q17 14 17 31q0 21 -27 33t-86 23.5t-86 20.5
q-17 -12 -17 -29z" />
    <glyph glyph-name="dieresis" unicode="&#xa8;" horiz-adv-x="100" 
d="M109 470q-24 0 -42 18t-18 42q0 25 18 42.5t42 17.5q25 0 43 -17.5t18 -42.5q0 -24 -18 -42t-43 -18zM277 470q-24 0 -42 18t-18 42q0 25 18 42.5t42 17.5q25 0 42.5 -17t17.5 -43q0 -24 -17.5 -42t-42.5 -18z" />
    <glyph glyph-name="copyright" unicode="&#xa9;" horiz-adv-x="691" 
d="M345 -8q-127 0 -217.5 90.5t-90.5 217.5t90.5 217.5t217.5 90.5t217.5 -90t90.5 -218t-90.5 -218t-217.5 -90zM345 59q102 0 171.5 70t69.5 171t-69.5 171t-171.5 70q-101 0 -171 -70t-70 -171t70 -171t171 -70zM346 155q-66 0 -107 40.5t-41 103.5t41 103t107 40
q59 0 98 -32t48 -85h-88q-15 39 -58 39q-28 0 -45.5 -18.5t-17.5 -46.5t17.5 -46.5t45.5 -19.5q44 2 58 40h88q-9 -53 -48 -85.5t-98 -32.5z" />
    <glyph glyph-name="ordfeminine" unicode="&#xaa;" horiz-adv-x="325" 
d="M225 600h61v-240h-61v37q-31 -42 -85 -42q-50 0 -84.5 36.5t-34.5 88.5t35 88.5t84 36.5q54 0 85 -42v37zM153 408q30 0 51 21t21 51t-21 51t-51 21t-51 -21t-21 -51t21 -51t51 -21z" />
    <glyph glyph-name="guillemotleft" unicode="&#xab;" horiz-adv-x="590" 
d="M210 76l-122 147l122 147h100l-122 -147l122 -147h-100zM401 76l-122 147l122 147h101l-121 -147l121 -147h-101z" />
    <glyph glyph-name="logicalnot" unicode="&#xac;" horiz-adv-x="657" 
d="M506 76v205h-435v81h515v-286h-80z" />
    <glyph glyph-name="uni00AD" unicode="&#xad;" horiz-adv-x="453" 
d="M63 164v88h280v-88h-280z" />
    <glyph glyph-name="registered" unicode="&#xae;" horiz-adv-x="691" 
d="M345 608q127 0 217.5 -90t90.5 -218t-90.5 -218t-217.5 -90t-217.5 90.5t-90.5 217.5t90.5 217.5t217.5 90.5zM345 59q102 0 171.5 70t69.5 171t-69.5 171t-171.5 70q-101 0 -171 -70t-70 -171t70 -171t171 -70zM461 360q0 -56 -51 -83l72 -131h-69l-67 120h-25v-120h-61
v308h105q40 0 68 -27.5t28 -66.5zM321 393v-66h44q14 0 24 9.5t10 23.5t-10 23.5t-24 9.5h-44z" />
    <glyph glyph-name="macron" unicode="&#xaf;" horiz-adv-x="47" 
d="M27 464v80h241v-80h-241z" />
    <glyph glyph-name="degree" unicode="&#xb0;" horiz-adv-x="389" 
d="M194 394q-44 0 -75.5 31t-31.5 76t31.5 76t75.5 31q45 0 76.5 -31t31.5 -76t-31.5 -76t-76.5 -31zM194 454q20 0 34 13.5t14 33.5t-14 33.5t-34 13.5t-33.5 -13.5t-13.5 -33.5t13.5 -33.5t33.5 -13.5z" />
    <glyph glyph-name="plusminus" unicode="&#xb1;" horiz-adv-x="639" 
d="M361 370h239v-83h-239v-144h-82v144h-240v83h240v144h82v-144zM39 0v74h561v-74h-561z" />
    <glyph glyph-name="uni00B2" unicode="&#xb2;" horiz-adv-x="295" 
d="M145 369h100v-54h-212l114 145q33 43 33 60q0 34 -32 34q-15 0 -24 -10t-7 -27h-60q-3 39 25.5 65.5t68.5 26.5q38 0 63.5 -23.5t25.5 -59.5q0 -24 -10 -43t-40 -57z" />
    <glyph glyph-name="uni00B3" unicode="&#xb3;" horiz-adv-x="296" 
d="M152 483q40 0 65.5 -22t25.5 -61t-28 -66.5t-70 -27.5q-39 0 -67 24.5t-28 59.5l61 1q0 -11 10 -19t24 -8q17 0 27 10.5t10 27.5q0 16 -10 26.5t-26 10.5h-83h-3l81 106h-91v54h195z" />
    <glyph glyph-name="acute" unicode="&#xb4;" horiz-adv-x="77" 
d="M30 451l88 149h121l-125 -149h-84z" />
    <glyph glyph-name="uni00B5" unicode="&#xb5;" horiz-adv-x="500" 
d="M338 400h110v-400h-110v46q-49 -54 -118 -54q-42 0 -76 20v-212h-81v600h110v-233q0 -33 23 -56t56 -23q36 0 61 23t25 56v233z" />
    <glyph glyph-name="paragraph" unicode="&#xb6;" horiz-adv-x="531" 
d="M234 -120v452h-12q-67 0 -105 35t-38 99q0 65 38 99.5t105 34.5h75v-720h-63zM372 -120v720h64v-720h-64z" />
    <glyph glyph-name="periodcentered" unicode="&#xb7;" horiz-adv-x="245" 
d="M122 237q-21 0 -36 15t-15 36q0 20 15.5 35.5t35.5 15.5t36 -15.5t16 -35.5q0 -21 -15.5 -36t-36.5 -15z" />
    <glyph glyph-name="cedilla" unicode="&#xb8;" horiz-adv-x="46" 
d="M117 -208q-31 0 -58 18t-36 44l56 18q13 -22 38 -22q13 0 22 9t9 22q0 21 -18 26.5t-44 -7.5l-45 26l41 74h59l-27 -46q38 7 65 -14.5t27 -58.5t-26 -63t-63 -26z" />
    <glyph glyph-name="uni00B9" unicode="&#xb9;" horiz-adv-x="217" 
d="M67 300v247h-42v53h102v-300h-60z" />
    <glyph glyph-name="ordmasculine" unicode="&#xba;" horiz-adv-x="306" 
d="M153 355q-55 0 -93.5 36t-38.5 89q0 52 38.5 88.5t93.5 36.5t94 -36.5t39 -88.5t-38.5 -88.5t-94.5 -36.5zM153 408q30 0 51 21t21 51t-21 51t-51 21t-51 -21t-21 -51t21 -51t51 -21z" />
    <glyph glyph-name="guillemotright" unicode="&#xbb;" horiz-adv-x="590" 
d="M87 76l122 147l-122 147h100l122 -147l-122 -147h-100zM279 76l121 147l-121 147h101l121 -147l-121 -147h-101z" />
    <glyph glyph-name="onequarter" unicode="&#xbc;" horiz-adv-x="839" 
d="M171 200h-86v325h-60v75h146v-400zM541 598h98l-418 -600h-98zM798 160v-76h-33v-84h-85v84h-190l167 316h108v-240h33zM598 160h82v163z" />
    <glyph glyph-name="onehalf" unicode="&#xbd;" horiz-adv-x="820" 
d="M171 200h-86v325h-60v75h146v-400zM527 599h98l-418 -600h-98zM649 74h139v-75h-293l156 201q30 38 38.5 53.5t8.5 29.5q0 25 -13 35.5t-31 10.5q-21 0 -33.5 -14t-9.5 -37h-83q-5 55 34 91t96 36q52 0 87.5 -32.5t35.5 -81.5q0 -34 -13.5 -60.5t-55.5 -78.5z" />
    <glyph glyph-name="threequarters" unicode="&#xbe;" horiz-adv-x="857" 
d="M309 327q0 -54 -39.5 -92t-96.5 -38q-54 0 -93 34t-39 82l85 1q0 -16 14 -26.5t33 -10.5q24 0 38 14.5t14 37.5t-14 37t-36 14h-116h-4l112 147h-126v75h271l-128 -160q55 0 90 -30t35 -85zM585 598h98l-418 -600h-98zM816 160v-76h-33v-84h-85v84h-190l167 316h108v-240
h33zM616 160h82v163z" />
    <glyph glyph-name="questiondown" unicode="&#xbf;" horiz-adv-x="527" 
d="M244 276q-29 0 -49.5 20t-20.5 50q0 29 20.5 49.5t49.5 20.5t49.5 -20.5t20.5 -49.5q0 -30 -20.5 -50t-49.5 -20zM247 -208q-84 0 -142 54t-58 133q0 39 10.5 67.5t26.5 42t34.5 25t34.5 18t26.5 18.5t10.5 29v47h114v-40q0 -40 -10.5 -66t-27 -36.5t-35 -19.5t-35 -15.5
t-27 -24t-10.5 -45.5q0 -32 25.5 -54.5t62.5 -22.5q44 0 69.5 30.5t17.5 73.5h113q9 -90 -49 -152t-151 -62z" />
    <glyph glyph-name="Agrave" unicode="&#xc0;" horiz-adv-x="554" 
d="M327 651h-84l-125 149h121zM426 0l-37 113h-224l-37 -113h-141l216 600h148l216 -600h-141zM200 223h154l-77 238z" />
    <glyph glyph-name="Aacute" unicode="&#xc1;" horiz-adv-x="554" 
d="M438 800l-125 -149h-84l88 149h121zM426 0l-37 113h-224l-37 -113h-141l216 600h148l216 -600h-141zM200 223h154l-77 238z" />
    <glyph glyph-name="Acircumflex" unicode="&#xc2;" horiz-adv-x="554" 
d="M278 729l-57 -78h-80l98 149h77l99 -149h-80zM426 0l-37 113h-224l-37 -113h-141l216 600h148l216 -600h-141zM200 223h154l-77 238z" />
    <glyph glyph-name="Atilde" unicode="&#xc3;" horiz-adv-x="554" 
d="M229 708q-23 0 -23 -54h-76q0 57 26 92.5t70 35.5q49 0 83 -47q7 -13 17 -13q23 0 23 54h76q0 -56 -25 -91.5t-72 -35.5q-49 0 -81 47q-8 12 -18 12zM426 0l-37 113h-224l-37 -113h-141l216 600h148l216 -600h-141zM200 223h154l-77 238z" />
    <glyph glyph-name="Adieresis" unicode="&#xc4;" horiz-adv-x="554" 
d="M194 670q-24 0 -42 18t-18 42q0 25 18 42.5t42 17.5q25 0 43 -17.5t18 -42.5q0 -24 -18 -42t-43 -18zM362 670q-24 0 -42 18t-18 42q0 25 18 42.5t42 17.5q26 0 43 -17t17 -43q0 -24 -17.5 -42t-42.5 -18zM426 0l-37 113h-224l-37 -113h-141l216 600h148l216 -600h-141z
M200 223h154l-77 238z" />
    <glyph glyph-name="Aring" unicode="&#xc5;" horiz-adv-x="554" 
d="M426 0l-37 113h-224l-37 -113h-141l214 595q-15 25 -15 52q0 40 28.5 68t69.5 28q40 0 68 -28t28 -68q0 -34 -23 -64l210 -583h-141zM284 693q-19 0 -31.5 -13.5t-12.5 -32.5q0 -21 12 -33.5t32 -12.5q19 0 32 12.5t13 33.5q0 18 -13.5 32t-31.5 14zM200 223h154l-77 238
z" />
    <glyph glyph-name="AE" unicode="&#xc6;" horiz-adv-x="762" 
d="M721 487h-232v-136h198v-102h-198v-136h232v-113h-360v125h-180l-47 -125h-147l240 600h494v-113zM219 227h142v262h-43z" />
    <glyph glyph-name="Ccedilla" unicode="&#xc7;" horiz-adv-x="644" 
d="M345 121q52 0 94.5 26t64.5 69l114 -59q-36 -69 -101.5 -113t-145.5 -51l-23 -39q38 7 65 -14.5t27 -58.5t-26 -63t-63 -26q-31 0 -58 18t-36 44l56 18q13 -22 38 -22q13 0 22 9t9 22q0 21 -18 26.5t-44 -7.5l-45 26l38 68q-117 12 -196.5 99.5t-79.5 206.5
q0 128 90.5 218t217.5 90q88 0 161 -45t112 -120l-114 -59q-22 43 -64.5 69t-94.5 26q-76 0 -127 -51.5t-51 -127.5t51 -127.5t127 -51.5z" />
    <glyph glyph-name="Egrave" unicode="&#xc8;" horiz-adv-x="466" 
d="M294 651h-84l-125 149h121zM425 484h-229v-126h196v-116h-196v-126h229v-116h-361v600h361v-116z" />
    <glyph glyph-name="Eacute" unicode="&#xc9;" horiz-adv-x="466" 
d="M405 800l-125 -149h-84l88 149h121zM425 484h-229v-126h196v-116h-196v-126h229v-116h-361v600h361v-116z" />
    <glyph glyph-name="Ecircumflex" unicode="&#xca;" horiz-adv-x="466" 
d="M245 729l-57 -78h-80l98 149h77l99 -149h-80zM425 484h-229v-126h196v-116h-196v-126h229v-116h-361v600h361v-116z" />
    <glyph glyph-name="Edieresis" unicode="&#xcb;" horiz-adv-x="466" 
d="M161 670q-24 0 -42 18t-18 42q0 25 18 42.5t42 17.5q25 0 43 -17.5t18 -42.5q0 -24 -18 -42t-43 -18zM329 670q-24 0 -42 18t-18 42q0 25 18 42.5t42 17.5q25 0 42.5 -17t17.5 -43q0 -24 -17.5 -42t-42.5 -18zM425 484h-229v-126h196v-116h-196v-126h229v-116h-361v600
h361v-116z" />
    <glyph glyph-name="Igrave" unicode="&#xcc;" horiz-adv-x="259" 
d="M178 651h-84l-125 149h121zM64 0v600h132v-600h-132z" />
    <glyph glyph-name="Iacute" unicode="&#xcd;" horiz-adv-x="259" 
d="M80 651l88 149h121l-125 -149h-84zM64 0v600h132v-600h-132z" />
    <glyph glyph-name="Icircumflex" unicode="&#xce;" horiz-adv-x="259" 
d="M72 651h-80l98 149h77l99 -149h-80l-57 78zM64 0v600h132v-600h-132z" />
    <glyph glyph-name="Idieresis" unicode="&#xcf;" horiz-adv-x="259" 
d="M45 670q-24 0 -42 18t-18 42q0 25 18 42.5t42 17.5q25 0 43 -17.5t18 -42.5q0 -24 -18 -42t-43 -18zM213 670q-24 0 -42 18t-18 42q0 25 18 42.5t42 17.5q25 0 42.5 -17t17.5 -43q0 -24 -17.5 -42t-42.5 -18zM64 0v600h132v-600h-132z" />
    <glyph glyph-name="Eth" unicode="&#xd0;" horiz-adv-x="594" 
d="M257 600q124 0 212 -88t88 -212t-88 -212t-212 -88h-198v266h-56v68h56v266h198zM256 117q71 0 120 52.5t49 130.5t-49 130.5t-120 52.5h-65v-149h92v-68h-92v-149h65z" />
    <glyph glyph-name="Ntilde" unicode="&#xd1;" horiz-adv-x="681" 
d="M294 708q-23 0 -23 -54h-76q0 57 26 92.5t70 35.5q49 0 83 -47q6 -13 17 -13q23 0 23 54h76q0 -56 -25 -91.5t-72 -35.5q-49 0 -81 47q-8 12 -18 12zM490 600h131v-600h-136l-294 398v-398h-132v600h136l295 -397v397z" />
    <glyph glyph-name="Ograve" unicode="&#xd2;" horiz-adv-x="691" 
d="M394 651h-84l-125 149h121zM345 -8q-127 0 -217.5 90t-90.5 218t90.5 218t217.5 90q128 0 218 -90t90 -218t-90 -218t-218 -90zM345 121q76 0 127.5 51.5t51.5 127.5t-51.5 127.5t-127.5 51.5t-127 -51.5t-51 -127.5t51 -127.5t127 -51.5z" />
    <glyph glyph-name="Oacute" unicode="&#xd3;" horiz-adv-x="691" 
d="M296 651l88 149h121l-125 -149h-84zM345 -8q-127 0 -217.5 90t-90.5 218t90.5 218t217.5 90q128 0 218 -90t90 -218t-90 -218t-218 -90zM345 121q76 0 127.5 51.5t51.5 127.5t-51.5 127.5t-127.5 51.5t-127 -51.5t-51 -127.5t51 -127.5t127 -51.5z" />
    <glyph glyph-name="Ocircumflex" unicode="&#xd4;" horiz-adv-x="691" 
d="M288 651h-80l98 149h77l99 -149h-80l-57 78zM345 -8q-127 0 -217.5 90t-90.5 218t90.5 218t217.5 90q128 0 218 -90t90 -218t-90 -218t-218 -90zM345 121q76 0 127.5 51.5t51.5 127.5t-51.5 127.5t-127.5 51.5t-127 -51.5t-51 -127.5t51 -127.5t127 -51.5z" />
    <glyph glyph-name="Otilde" unicode="&#xd5;" horiz-adv-x="691" 
d="M395 649q-49 0 -81 47q-8 12 -18 12q-23 0 -23 -54h-76q0 57 26 92.5t70 35.5q49 0 83 -47q6 -13 17 -13q23 0 23 54h76q0 -56 -25 -91.5t-72 -35.5zM345 -8q-127 0 -217.5 90t-90.5 218t90.5 218t217.5 90q128 0 218 -90t90 -218t-90 -218t-218 -90zM345 121
q76 0 127.5 51.5t51.5 127.5t-51.5 127.5t-127.5 51.5t-127 -51.5t-51 -127.5t51 -127.5t127 -51.5z" />
    <glyph glyph-name="Odieresis" unicode="&#xd6;" horiz-adv-x="691" 
d="M261 670q-24 0 -42 18t-18 42q0 25 18 42.5t42 17.5q25 0 43 -17.5t18 -42.5q0 -24 -18 -42t-43 -18zM429 670q-24 0 -42 18t-18 42q0 25 18 42.5t42 17.5q25 0 42.5 -17t17.5 -43q0 -24 -17.5 -42t-42.5 -18zM345 -8q-127 0 -217.5 90t-90.5 218t90.5 218t217.5 90
q128 0 218 -90t90 -218t-90 -218t-218 -90zM345 121q76 0 127.5 51.5t51.5 127.5t-51.5 127.5t-127.5 51.5t-127 -51.5t-51 -127.5t51 -127.5t127 -51.5z" />
    <glyph glyph-name="multiply" unicode="&#xd7;" horiz-adv-x="613" 
d="M525 389l-141 -141l141 -141l-68 -69l-142 141l-141 -141l-69 69l141 141l-141 141l69 69l141 -141l142 141z" />
    <glyph glyph-name="Oslash" unicode="&#xd8;" horiz-adv-x="691" 
d="M556 525q97 -92 97 -225q0 -128 -90 -218t-218 -90q-71 0 -138 32l-50 -72l-78 46l54 78q-96 91 -96 224q0 128 90.5 218t217.5 90q74 0 136 -32l51 73l78 -47zM167 300q0 -67 41 -116l199 285q-32 10 -62 10q-76 0 -127 -51.5t-51 -127.5zM345 121q76 0 127.5 51.5
t51.5 127.5q0 68 -42 118l-200 -286q31 -11 63 -11z" />
    <glyph glyph-name="Ugrave" unicode="&#xd9;" horiz-adv-x="611" 
d="M354 651h-84l-125 149h121zM305 -8q-105 0 -177 57.5t-72 142.5v408h132v-383q0 -46 33.5 -77t83.5 -31t84 31t34 77v383h132v-408q0 -85 -72 -142.5t-178 -57.5z" />
    <glyph glyph-name="Uacute" unicode="&#xda;" horiz-adv-x="611" 
d="M256 651l88 149h121l-125 -149h-84zM305 -8q-105 0 -177 57.5t-72 142.5v408h132v-383q0 -46 33.5 -77t83.5 -31t84 31t34 77v383h132v-408q0 -85 -72 -142.5t-178 -57.5z" />
    <glyph glyph-name="Ucircumflex" unicode="&#xdb;" horiz-adv-x="611" 
d="M248 651h-80l98 149h77l99 -149h-80l-57 78zM305 -8q-105 0 -177 57.5t-72 142.5v408h132v-383q0 -46 33.5 -77t83.5 -31t84 31t34 77v383h132v-408q0 -85 -72 -142.5t-178 -57.5z" />
    <glyph glyph-name="Udieresis" unicode="&#xdc;" horiz-adv-x="611" 
d="M221 670q-24 0 -42 18t-18 42q0 25 18 42.5t42 17.5q25 0 43 -17.5t18 -42.5q0 -24 -18 -42t-43 -18zM389 670q-24 0 -42 18t-18 42q0 25 18 42.5t42 17.5q25 0 42.5 -17t17.5 -43q0 -24 -17.5 -42t-42.5 -18zM305 -8q-105 0 -177 57.5t-72 142.5v408h132v-383
q0 -46 33.5 -77t83.5 -31t84 31t34 77v383h132v-408q0 -85 -72 -142.5t-178 -57.5z" />
    <glyph glyph-name="Yacute" unicode="&#xdd;" horiz-adv-x="527" 
d="M424 800l-125 -149h-84l88 149h121zM539 600l-209 -317v-283h-132v282l-211 318h149l128 -203l128 203h147z" />
    <glyph glyph-name="Thorn" unicode="&#xde;" horiz-adv-x="515" 
d="M318 512q74 0 126 -53t52 -129q0 -73 -52 -123.5t-126 -50.5h-126v-156h-127v512v88h127v-88h126zM313 269q28 0 47 19t19 46q0 28 -19 46.5t-47 18.5h-121v-130h121z" />
    <glyph glyph-name="germandbls" unicode="&#xdf;" horiz-adv-x="567" 
d="M440 315q78 -55 78 -148q0 -73 -47.5 -122t-117.5 -45h-96v113h71q25 1 44 18t19 44q0 32 -24.5 54.5t-59.5 22.5h-28v104h11q30 0 52 21t22 49t-22.5 45.5t-57.5 17.5q-39 0 -65.5 -22.5t-26.5 -56.5v-410h-127v410q0 82 62 136t155 54q88 0 145 -48.5t57 -123.5
q0 -66 -44 -113z" />
    <glyph glyph-name="agrave" unicode="&#xe0;" horiz-adv-x="538" 
d="M300 451h-84l-125 149h121zM505 104h18v-104q-18 -8 -34 -8q-82 0 -123 68q-52 -68 -137 -68q-83 0 -140.5 60.5t-57.5 147.5t57.5 147.5t140.5 60.5q66 0 114 -43v35h127v-257q0 -39 35 -39zM254 105q39 0 67 27.5t28 67.5t-28 67.5t-67 27.5q-40 0 -67.5 -27.5
t-27.5 -67.5t27.5 -67.5t67.5 -27.5z" />
    <glyph glyph-name="aacute" unicode="&#xe1;" horiz-adv-x="538" 
d="M411 600l-125 -149h-84l88 149h121zM505 104h18v-104q-18 -8 -34 -8q-82 0 -123 68q-52 -68 -137 -68q-83 0 -140.5 60.5t-57.5 147.5t57.5 147.5t140.5 60.5q66 0 114 -43v35h127v-257q0 -39 35 -39zM254 105q39 0 67 27.5t28 67.5t-28 67.5t-67 27.5q-40 0 -67.5 -27.5
t-27.5 -67.5t27.5 -67.5t67.5 -27.5z" />
    <glyph glyph-name="acircumflex" unicode="&#xe2;" horiz-adv-x="538" 
d="M251 529l-57 -78h-80l98 149h77l99 -149h-80zM505 104h18v-104q-18 -8 -34 -8q-82 0 -123 68q-52 -68 -137 -68q-83 0 -140.5 60.5t-57.5 147.5t57.5 147.5t140.5 60.5q66 0 114 -43v35h127v-257q0 -39 35 -39zM254 105q39 0 67 27.5t28 67.5t-28 67.5t-67 27.5
q-40 0 -67.5 -27.5t-27.5 -67.5t27.5 -67.5t67.5 -27.5z" />
    <glyph glyph-name="atilde" unicode="&#xe3;" horiz-adv-x="538" 
d="M202 508q-23 0 -23 -54h-76q0 57 26 92.5t70 35.5q49 0 83 -47q6 -13 17 -13q23 0 23 54h76q0 -56 -25 -91.5t-72 -35.5q-49 0 -81 47q-8 12 -18 12zM505 104h18v-104q-18 -8 -34 -8q-82 0 -123 68q-52 -68 -137 -68q-83 0 -140.5 60.5t-57.5 147.5t57.5 147.5
t140.5 60.5q66 0 114 -43v35h127v-257q0 -39 35 -39zM254 105q39 0 67 27.5t28 67.5t-28 67.5t-67 27.5q-40 0 -67.5 -27.5t-27.5 -67.5t27.5 -67.5t67.5 -27.5z" />
    <glyph glyph-name="adieresis" unicode="&#xe4;" horiz-adv-x="538" 
d="M167 470q-24 0 -42 18t-18 42q0 25 18 42.5t42 17.5q25 0 43 -17.5t18 -42.5q0 -24 -18 -42t-43 -18zM335 470q-24 0 -42 18t-18 42q0 25 18 42.5t42 17.5q25 0 42.5 -17t17.5 -43q0 -24 -17.5 -42t-42.5 -18zM505 104h18v-104q-18 -8 -34 -8q-82 0 -123 68
q-52 -68 -137 -68q-83 0 -140.5 60.5t-57.5 147.5t57.5 147.5t140.5 60.5q66 0 114 -43v35h127v-257q0 -39 35 -39zM254 105q39 0 67 27.5t28 67.5t-28 67.5t-67 27.5q-40 0 -67.5 -27.5t-27.5 -67.5t27.5 -67.5t67.5 -27.5z" />
    <glyph glyph-name="aring" unicode="&#xe5;" horiz-adv-x="538" 
d="M251 432q-41 0 -69.5 29t-28.5 69t28.5 68t69.5 28q40 0 68 -28t28 -68q0 -41 -28 -69.5t-68 -28.5zM251 576q-19 0 -31.5 -13.5t-12.5 -32.5q0 -21 12 -33.5t32 -12.5q19 0 32 12.5t13 33.5q0 18 -13.5 32t-31.5 14zM505 104h18v-104q-18 -8 -34 -8q-82 0 -123 68
q-52 -68 -137 -68q-83 0 -140.5 60.5t-57.5 147.5t57.5 147.5t140.5 60.5q66 0 114 -43v35h127v-257q0 -39 35 -39zM254 105q39 0 67 27.5t28 67.5t-28 67.5t-67 27.5q-40 0 -67.5 -27.5t-27.5 -67.5t27.5 -67.5t67.5 -27.5z" />
    <glyph glyph-name="ae" unicode="&#xe6;" horiz-adv-x="756" 
d="M726 201v-22h-306q8 -92 93 -92q66 0 84 51h123q-15 -67 -69 -106.5t-136 -39.5q-108 0 -171 66q-68 -66 -165 -66q-70 0 -109 33t-39 89q0 58 40.5 91t110.5 33h107v19q0 27 -17 41.5t-46 16.5q-28 1 -46 -9.5t-20 -29.5l-110 31q14 47 61.5 74t115.5 27q88 0 140 -44
q59 45 144 45q97 0 156 -57t59 -151zM513 311q-64 0 -85 -55h166q-20 55 -81 55zM211 82q27 0 51 15t37 40q-4 16 -5 25h-80q-23 0 -37 -11.5t-14 -30.5q0 -38 48 -38z" />
    <glyph glyph-name="ccedilla" unicode="&#xe7;" horiz-adv-x="496" 
d="M254 105q66 2 87 57h132q-12 -73 -67 -119.5t-139 -50.5l-23 -39q38 7 65 -14.5t27 -58.5q0 -38 -26 -63.5t-63 -25.5q-31 0 -58 18t-36 44l56 18q13 -22 38 -22q13 0 22 9t9 22q0 21 -18 26.5t-44 -7.5l-45 26l39 70q-81 13 -130 69t-49 136q0 91 61.5 149.5t161.5 58.5
q89 0 147.5 -47t71.5 -123h-132q-21 55 -87 57q-41 -1 -68 -28t-27 -67t27 -67t68 -28z" />
    <glyph glyph-name="egrave" unicode="&#xe8;" horiz-adv-x="496" 
d="M304 452h-84l-125 149h121zM466 201v-22h-306q8 -92 93 -92q66 0 84 51h123q-15 -67 -69 -106.5t-136 -39.5q-101 0 -162.5 57t-61.5 151q0 93 61.5 151t158.5 58t156 -57t59 -151zM253 311q-64 0 -85 -55h166q-20 55 -81 55z" />
    <glyph glyph-name="eacute" unicode="&#xe9;" horiz-adv-x="496" 
d="M415 601l-125 -149h-84l88 149h121zM466 201v-22h-306q8 -92 93 -92q66 0 84 51h123q-15 -67 -69 -106.5t-136 -39.5q-101 0 -162.5 57t-61.5 151q0 93 61.5 151t158.5 58t156 -57t59 -151zM253 311q-64 0 -85 -55h166q-20 55 -81 55z" />
    <glyph glyph-name="ecircumflex" unicode="&#xea;" horiz-adv-x="496" 
d="M255 530l-57 -78h-80l98 149h77l99 -149h-80zM466 201v-22h-306q8 -92 93 -92q66 0 84 51h123q-15 -67 -69 -106.5t-136 -39.5q-101 0 -162.5 57t-61.5 151q0 93 61.5 151t158.5 58t156 -57t59 -151zM253 311q-64 0 -85 -55h166q-20 55 -81 55z" />
    <glyph glyph-name="edieresis" unicode="&#xeb;" horiz-adv-x="496" 
d="M171 471q-24 0 -42 18t-18 42q0 25 18 42.5t42 17.5q25 0 43 -17.5t18 -42.5q0 -24 -18 -42t-43 -18zM339 471q-24 0 -42 18t-18 42q0 25 18 42.5t42 17.5q25 0 42.5 -17.5t17.5 -42.5q0 -24 -17.5 -42t-42.5 -18zM466 201v-22h-306q8 -92 93 -92q66 0 84 51h123
q-15 -67 -69 -106.5t-136 -39.5q-101 0 -162.5 57t-61.5 151q0 93 61.5 151t158.5 58t156 -57t59 -151zM253 311q-64 0 -85 -55h166q-20 55 -81 55z" />
    <glyph glyph-name="igrave" unicode="&#xec;" horiz-adv-x="256" 
d="M177 451h-84l-125 149h121zM64 0v400h128v-400h-128z" />
    <glyph glyph-name="iacute" unicode="&#xed;" horiz-adv-x="256" 
d="M79 451l88 149h121l-125 -149h-84zM64 0v400h128v-400h-128z" />
    <glyph glyph-name="icircumflex" unicode="&#xee;" horiz-adv-x="256" 
d="M71 451h-80l98 149h77l99 -149h-80l-57 78zM64 0v400h128v-400h-128z" />
    <glyph glyph-name="idieresis" unicode="&#xef;" horiz-adv-x="256" 
d="M44 470q-24 0 -42 18t-18 42q0 25 18 42.5t42 17.5q25 0 43 -17.5t18 -42.5q0 -24 -18 -42t-43 -18zM212 470q-24 0 -42 18t-18 42q0 25 18 42.5t42 17.5q26 0 43 -17t17 -43q0 -24 -17.5 -42t-42.5 -18zM64 0v400h128v-400h-128z" />
    <glyph glyph-name="eth" unicode="&#xf0;" horiz-adv-x="504" 
d="M318 569q75 -56 118 -151.5t43 -217.5q0 -87 -65 -147.5t-159 -60.5t-159 60.5t-65 147.5t65 147.5t159 60.5q33 0 58 -7q-24 50 -63 82l-36 -46l-58 44l30 38q-44 16 -92 14l26 101q70 0 135 -28l40 51l57 -44zM255 105q40 0 67.5 27.5t27.5 67.5t-27.5 67.5t-67.5 27.5
t-67.5 -27.5t-27.5 -67.5t27.5 -67.5t67.5 -27.5z" />
    <glyph glyph-name="ntilde" unicode="&#xf1;" horiz-adv-x="495" 
d="M205 508q-23 0 -23 -54h-76q0 57 26 92.5t70 35.5q49 0 83 -47q7 -13 17 -13q23 0 23 54h76q0 -56 -25 -91.5t-72 -35.5q-49 0 -81 47q-8 12 -18 12zM301 408q60 0 101.5 -44.5t41.5 -110.5v-253h-127v232q0 27 -17.5 45t-45.5 18t-47.5 -18t-19.5 -45v-232h-128v400h128
v-49q46 57 114 57z" />
    <glyph glyph-name="ograve" unicode="&#xf2;" horiz-adv-x="508" 
d="M303 451h-84l-125 149h121zM254 -8q-100 0 -161.5 58.5t-61.5 149.5t61.5 149.5t161.5 58.5q99 0 160.5 -58.5t61.5 -149.5t-61.5 -149.5t-160.5 -58.5zM254 105q41 1 68 28t27 67t-27 67t-68 28q-41 -1 -68 -28t-27 -67t27 -67t68 -28z" />
    <glyph glyph-name="oacute" unicode="&#xf3;" horiz-adv-x="508" 
d="M205 451l88 149h121l-125 -149h-84zM254 -8q-100 0 -161.5 58.5t-61.5 149.5t61.5 149.5t161.5 58.5q99 0 160.5 -58.5t61.5 -149.5t-61.5 -149.5t-160.5 -58.5zM254 105q41 1 68 28t27 67t-27 67t-68 28q-41 -1 -68 -28t-27 -67t27 -67t68 -28z" />
    <glyph glyph-name="ocircumflex" unicode="&#xf4;" horiz-adv-x="508" 
d="M197 451h-80l98 149h77l99 -149h-80l-57 78zM254 -8q-100 0 -161.5 58.5t-61.5 149.5t61.5 149.5t161.5 58.5q99 0 160.5 -58.5t61.5 -149.5t-61.5 -149.5t-160.5 -58.5zM254 105q41 1 68 28t27 67t-27 67t-68 28q-41 -1 -68 -28t-27 -67t27 -67t68 -28z" />
    <glyph glyph-name="otilde" unicode="&#xf5;" horiz-adv-x="508" 
d="M304 449q-49 0 -81 47q-8 12 -18 12q-23 0 -23 -54h-76q0 57 26 92.5t70 35.5q49 0 83 -47q7 -13 17 -13q23 0 23 54h76q0 -56 -25 -91.5t-72 -35.5zM254 -8q-100 0 -161.5 58.5t-61.5 149.5t61.5 149.5t161.5 58.5q99 0 160.5 -58.5t61.5 -149.5t-61.5 -149.5
t-160.5 -58.5zM254 105q41 1 68 28t27 67t-27 67t-68 28q-41 -1 -68 -28t-27 -67t27 -67t68 -28z" />
    <glyph glyph-name="odieresis" unicode="&#xf6;" horiz-adv-x="508" 
d="M170 470q-24 0 -42 18t-18 42q0 25 18 42.5t42 17.5q25 0 43 -17.5t18 -42.5q0 -24 -18 -42t-43 -18zM338 470q-24 0 -42 18t-18 42q0 25 18 42.5t42 17.5q26 0 43 -17t17 -43q0 -24 -17.5 -42t-42.5 -18zM254 -8q-100 0 -161.5 58.5t-61.5 149.5t61.5 149.5t161.5 58.5
q99 0 160.5 -58.5t61.5 -149.5t-61.5 -149.5t-160.5 -58.5zM254 105q41 1 68 28t27 67t-27 67t-68 28q-41 -1 -68 -28t-27 -67t27 -67t68 -28z" />
    <glyph glyph-name="divide" unicode="&#xf7;" horiz-adv-x="575" 
d="M287 319q-25 0 -43.5 18t-18.5 44q0 25 18.5 44t43.5 19t44 -19t19 -44q0 -26 -19 -44t-44 -18zM47 188v64h480v-64h-480zM287 -4q-25 0 -43.5 18.5t-18.5 44.5q0 25 18.5 43.5t43.5 18.5t44 -18.5t19 -43.5q0 -26 -19 -44.5t-44 -18.5z" />
    <glyph glyph-name="oslash" unicode="&#xf8;" horiz-adv-x="508" 
d="M403 360q73 -59 73 -160q0 -91 -61.5 -149.5t-160.5 -58.5q-51 0 -96 17l-29 -42l-52 31l29 41q-75 59 -75 161q0 91 61.5 149.5t161.5 58.5q53 0 96 -17l30 43l52 -32zM159 200q0 -32 18 -58l104 149q-18 4 -27 4q-41 -1 -68 -28t-27 -67zM254 105q41 1 68 28t27 67
q0 31 -18 57l-103 -148q11 -4 26 -4z" />
    <glyph glyph-name="ugrave" unicode="&#xf9;" horiz-adv-x="477" 
d="M290 451h-84l-125 149h121zM238 -8q-90 0 -139 43t-49 118v247h128v-230q0 -28 17 -46.5t43 -18.5t43.5 18.5t17.5 46.5v230h127v-247q0 -75 -49 -118t-139 -43z" />
    <glyph glyph-name="uacute" unicode="&#xfa;" horiz-adv-x="477" 
d="M192 451l88 149h121l-125 -149h-84zM238 -8q-90 0 -139 43t-49 118v247h128v-230q0 -28 17 -46.5t43 -18.5t43.5 18.5t17.5 46.5v230h127v-247q0 -75 -49 -118t-139 -43z" />
    <glyph glyph-name="ucircumflex" unicode="&#xfb;" horiz-adv-x="477" 
d="M184 451h-80l98 149h77l99 -149h-80l-57 78zM238 -8q-90 0 -139 43t-49 118v247h128v-230q0 -28 17 -46.5t43 -18.5t43.5 18.5t17.5 46.5v230h127v-247q0 -75 -49 -118t-139 -43z" />
    <glyph glyph-name="udieresis" unicode="&#xfc;" horiz-adv-x="477" 
d="M157 470q-24 0 -42 18t-18 42q0 25 18 42.5t42 17.5q25 0 43 -17.5t18 -42.5q0 -24 -18 -42t-43 -18zM325 470q-24 0 -42 18t-18 42q0 25 18 42.5t42 17.5q25 0 42.5 -17t17.5 -43q0 -24 -17.5 -42t-42.5 -18zM238 -8q-90 0 -139 43t-49 118v247h128v-230q0 -28 17 -46.5
t43 -18.5t43.5 18.5t17.5 46.5v230h127v-247q0 -75 -49 -118t-139 -43z" />
    <glyph glyph-name="yacute" unicode="&#xfd;" horiz-adv-x="454" 
d="M386 600l-125 -149h-84l88 149h121zM326 400h132l-256 -640h-134l94 231l-167 409h133l100 -265z" />
    <glyph glyph-name="thorn" unicode="&#xfe;" horiz-adv-x="534" 
d="M305 408q84 0 140.5 -60.5t56.5 -147.5t-56.5 -147.5t-140.5 -60.5q-66 0 -113 42v-274h-127v853h127v-247q47 42 113 42zM287 105q40 0 67.5 27.5t27.5 67.5t-27.5 67.5t-67.5 27.5t-67.5 -27.5t-27.5 -67.5t27.5 -67.5t67.5 -27.5z" />
    <glyph glyph-name="ydieresis" unicode="&#xff;" horiz-adv-x="454" 
d="M142 470q-24 0 -42 18t-18 42q0 25 18 42.5t42 17.5q25 0 43 -17.5t18 -42.5q0 -24 -18 -42t-43 -18zM310 470q-24 0 -42 18t-18 42q0 25 18 42.5t42 17.5q26 0 43 -17t17 -43q0 -24 -17.5 -42t-42.5 -18zM326 400h132l-256 -640h-134l94 231l-167 409h133l100 -265z" />
    <glyph glyph-name="Amacron" unicode="&#x100;" horiz-adv-x="554" 
d="M399 744v-80h-241v80h241zM426 0l-37 113h-224l-37 -113h-141l216 600h148l216 -600h-141zM200 223h154l-77 238z" />
    <glyph glyph-name="amacron" unicode="&#x101;" horiz-adv-x="538" 
d="M372 544v-80h-241v80h241zM505 104h18v-104q-18 -8 -34 -8q-82 0 -123 68q-52 -68 -137 -68q-83 0 -140.5 60.5t-57.5 147.5t57.5 147.5t140.5 60.5q66 0 114 -43v35h127v-257q0 -39 35 -39zM254 105q39 0 67 27.5t28 67.5t-28 67.5t-67 27.5q-40 0 -67.5 -27.5
t-27.5 -67.5t27.5 -67.5t67.5 -27.5z" />
    <glyph glyph-name="Abreve" unicode="&#x102;" horiz-adv-x="554" 
d="M278 644q-67 0 -106.5 36t-39.5 105h72q0 -27 21 -48t53 -21q33 0 53.5 20.5t20.5 48.5h72q0 -69 -39.5 -105t-106.5 -36zM426 0l-37 113h-224l-37 -113h-141l216 600h148l216 -600h-141zM200 223h154l-77 238z" />
    <glyph glyph-name="abreve" unicode="&#x103;" horiz-adv-x="538" 
d="M251 444q-67 0 -106.5 36t-39.5 105h72q0 -27 20.5 -48t53.5 -21t53.5 20.5t20.5 48.5h72q0 -69 -39.5 -105t-106.5 -36zM505 104h18v-104q-18 -8 -34 -8q-82 0 -123 68q-52 -68 -137 -68q-83 0 -140.5 60.5t-57.5 147.5t57.5 147.5t140.5 60.5q66 0 114 -43v35h127v-257
q0 -39 35 -39zM254 105q39 0 67 27.5t28 67.5t-28 67.5t-67 27.5q-40 0 -67.5 -27.5t-27.5 -67.5t27.5 -67.5t67.5 -27.5z" />
    <glyph glyph-name="Aogonek" unicode="&#x104;" horiz-adv-x="554" 
d="M574 -102l40 -56q-52 -54 -127 -49q-47 4 -74 32t-27 69q0 66 81 106h-41l-37 113h-224l-37 -113h-141l216 600h148l216 -600q-39 -18 -56 -28t-32 -27.5t-15 -39.5q0 -50 44 -50q42 0 66 43zM200 223h154l-77 238z" />
    <glyph glyph-name="aogonek" unicode="&#x105;" horiz-adv-x="538" 
d="M529 -102l40 -56q-52 -54 -127 -49q-47 4 -74 32t-27 69q0 67 89 110q-40 16 -64 56q-52 -68 -137 -68q-83 0 -140.5 60.5t-57.5 147.5t57.5 147.5t140.5 60.5q66 0 114 -43v35h127v-257q0 -39 35 -39h18v-104l-7 -3q-52 -24 -74.5 -42.5t-22.5 -49.5q0 -50 44 -50
q42 0 66 43zM254 105q39 0 67 27.5t28 67.5t-28 67.5t-67 27.5q-40 0 -67.5 -27.5t-27.5 -67.5t27.5 -67.5t67.5 -27.5z" />
    <glyph glyph-name="Cacute" unicode="&#x106;" horiz-adv-x="644" 
d="M296 651l88 149h121l-125 -149h-84zM345 -8q-127 0 -217.5 90t-90.5 218t90.5 218t217.5 90q88 0 161 -45t112 -120l-114 -59q-22 43 -64.5 69t-94.5 26q-76 0 -127 -51.5t-51 -127.5t51 -127.5t127 -51.5q52 0 94.5 26t64.5 69l114 -59q-39 -75 -112 -120t-161 -45z" />
    <glyph glyph-name="cacute" unicode="&#x107;" horiz-adv-x="496" 
d="M184 452l88 149h121l-125 -149h-84zM254 -8q-100 0 -161.5 58.5t-61.5 149.5t61.5 149.5t161.5 58.5q89 0 147.5 -47t71.5 -123h-132q-21 55 -87 57q-41 -1 -68 -28t-27 -67t27 -67t68 -28q66 2 87 57h132q-13 -76 -71.5 -123t-147.5 -47z" />
    <glyph glyph-name="Cdotaccent" unicode="&#x10a;" horiz-adv-x="644" 
d="M345 651q-29 0 -49.5 20.5t-20.5 49.5t20.5 49.5t49.5 20.5t50 -20.5t21 -49.5t-21 -49.5t-50 -20.5zM345 -8q-127 0 -217.5 90t-90.5 218t90.5 218t217.5 90q88 0 161 -45t112 -120l-114 -59q-22 43 -64.5 69t-94.5 26q-76 0 -127 -51.5t-51 -127.5t51 -127.5t127 -51.5
q52 0 94.5 26t64.5 69l114 -59q-39 -75 -112 -120t-161 -45z" />
    <glyph glyph-name="cdotaccent" unicode="&#x10b;" horiz-adv-x="496" 
d="M233 452q-29 0 -49.5 21t-20.5 49q0 29 20.5 49.5t49.5 20.5t50 -20.5t21 -49.5t-21 -49.5t-50 -20.5zM254 -8q-100 0 -161.5 58.5t-61.5 149.5t61.5 149.5t161.5 58.5q89 0 147.5 -47t71.5 -123h-132q-21 55 -87 57q-41 -1 -68 -28t-27 -67t27 -67t68 -28q66 2 87 57
h132q-13 -76 -71.5 -123t-147.5 -47z" />
    <glyph glyph-name="Ccaron" unicode="&#x10c;" horiz-adv-x="644" 
d="M306 651l-98 149h80l57 -78l57 78h80l-99 -149h-77zM345 -8q-127 0 -217.5 90t-90.5 218t90.5 218t217.5 90q88 0 161 -45t112 -120l-114 -59q-22 43 -64.5 69t-94.5 26q-76 0 -127 -51.5t-51 -127.5t51 -127.5t127 -51.5q52 0 94.5 26t64.5 69l114 -59
q-39 -75 -112 -120t-161 -45z" />
    <glyph glyph-name="ccaron" unicode="&#x10d;" horiz-adv-x="496" 
d="M194 452l-98 149h80l57 -78l57 78h80l-99 -149h-77zM254 -8q-100 0 -161.5 58.5t-61.5 149.5t61.5 149.5t161.5 58.5q89 0 147.5 -47t71.5 -123h-132q-21 55 -87 57q-41 -1 -68 -28t-27 -67t27 -67t68 -28q66 2 87 57h132q-13 -76 -71.5 -123t-147.5 -47z" />
    <glyph glyph-name="Dcaron" unicode="&#x10e;" horiz-adv-x="594" 
d="M217 651l-98 149h80l57 -78l57 78h80l-99 -149h-77zM59 0v600h198q124 0 212 -88t88 -212t-88 -212t-212 -88h-198zM191 117h65q71 0 120 52.5t49 130.5t-49 130.5t-120 52.5h-65v-366z" />
    <glyph glyph-name="dcaron" unicode="&#x10f;" horiz-adv-x="674" 
d="M343 365v320h127v-685l-127 -1v36q-48 -43 -114 -43q-83 0 -140.5 60.5t-57.5 147.5t57.5 147.5t140.5 60.5q66 0 114 -43zM587 685h106l-108 -242h-66zM254 105q39 0 67 27.5t28 67.5t-28 67.5t-67 27.5q-40 0 -67.5 -27.5t-27.5 -67.5t27.5 -67.5t67.5 -27.5z" />
    <glyph glyph-name="Dcroat" unicode="&#x110;" horiz-adv-x="594" 
d="M257 600q124 0 212 -88t88 -212t-88 -212t-212 -88h-198v266h-56v68h56v266h198zM256 117q71 0 120 52.5t49 130.5t-49 130.5t-120 52.5h-65v-149h92v-68h-92v-149h65z" />
    <glyph glyph-name="dcroat" unicode="&#x111;" horiz-adv-x="529" 
d="M521 557v-68h-51v-489l-127 -1v36q-48 -43 -114 -43q-83 0 -140.5 60.5t-57.5 147.5t57.5 147.5t140.5 60.5q66 0 114 -43v124h-102v68h102v128h127v-128h51zM254 105q39 0 67 27.5t28 67.5t-28 67.5t-67 27.5q-40 0 -67.5 -27.5t-27.5 -67.5t27.5 -67.5t67.5 -27.5z" />
    <glyph glyph-name="Emacron" unicode="&#x112;" horiz-adv-x="466" 
d="M366 744v-80h-241v80h241zM425 484h-229v-126h196v-116h-196v-126h229v-116h-361v600h361v-116z" />
    <glyph glyph-name="emacron" unicode="&#x113;" horiz-adv-x="496" 
d="M376 545v-80h-241v80h241zM466 201v-22h-306q8 -92 93 -92q66 0 84 51h123q-15 -67 -69 -106.5t-136 -39.5q-101 0 -162.5 57t-61.5 151q0 93 61.5 151t158.5 58t156 -57t59 -151zM253 311q-64 0 -85 -55h166q-20 55 -81 55z" />
    <glyph glyph-name="Edotaccent" unicode="&#x116;" horiz-adv-x="466" 
d="M245 651q-29 0 -49.5 20.5t-20.5 49.5t20.5 49.5t49.5 20.5t50 -20.5t21 -49.5t-21 -49.5t-50 -20.5zM425 484h-229v-126h196v-116h-196v-126h229v-116h-361v600h361v-116z" />
    <glyph glyph-name="edotaccent" unicode="&#x117;" horiz-adv-x="496" 
d="M255 452q-29 0 -49.5 21t-20.5 49q0 29 20.5 49.5t49.5 20.5t50 -20.5t21 -49.5t-21 -49.5t-50 -20.5zM466 201v-22h-306q8 -92 93 -92q66 0 84 51h123q-15 -67 -69 -106.5t-136 -39.5q-101 0 -162.5 57t-61.5 151q0 93 61.5 151t158.5 58t156 -57t59 -151zM253 311
q-64 0 -85 -55h166q-20 55 -81 55z" />
    <glyph glyph-name="Eogonek" unicode="&#x118;" horiz-adv-x="466" 
d="M432 -102l40 -56q-52 -54 -127 -49q-47 4 -74 32t-27 69q0 66 81 106h-261v600h361v-116h-229v-126h196v-116h-196v-126h229v-116q-39 -18 -56 -28t-32 -27.5t-15 -39.5q0 -50 44 -50q42 0 66 43z" />
    <glyph glyph-name="eogonek" unicode="&#x119;" horiz-adv-x="496" 
d="M466 201v-22h-306q8 -92 93 -92q66 0 84 51h123q-22 -98 -120 -132q-42 -20 -61.5 -38.5t-19.5 -46.5q0 -50 44 -50q42 0 66 43l40 -56q-52 -54 -127 -49q-47 4 -74 32t-27 69q0 48 45 83q-89 9 -142 64.5t-53 142.5q0 93 61.5 151t158.5 58t156 -57t59 -151zM253 311
q-64 0 -85 -55h166q-20 55 -81 55z" />
    <glyph glyph-name="Ecaron" unicode="&#x11a;" horiz-adv-x="466" 
d="M283 651h-77l-98 149h80l57 -78l57 78h80zM425 484h-229v-126h196v-116h-196v-126h229v-116h-361v600h361v-116z" />
    <glyph glyph-name="ecaron" unicode="&#x11b;" horiz-adv-x="496" 
d="M293 452h-77l-98 149h80l57 -78l57 78h80zM466 201v-22h-306q8 -92 93 -92q66 0 84 51h123q-15 -67 -69 -106.5t-136 -39.5q-101 0 -162.5 57t-61.5 151q0 93 61.5 151t158.5 58t156 -57t59 -151zM253 311q-64 0 -85 -55h166q-20 55 -81 55z" />
    <glyph glyph-name="Gbreve" unicode="&#x11e;" horiz-adv-x="692" 
d="M346 644q-67 0 -106.5 36t-39.5 105h72q0 -27 21 -48t53 -21q33 0 53.5 20.5t20.5 48.5h72q0 -69 -39.5 -105t-106.5 -36zM345 329h309v-29q0 -128 -90 -218t-218 -90t-218 90t-90 218t90 218t218 90q87 0 160 -45t113 -120l-114 -59q-23 44 -65 69.5t-94 25.5
q-76 0 -127.5 -51.5t-51.5 -127.5t51.5 -127.5t127.5 -51.5q55 0 99 28.5t65 76.5h-165v103z" />
    <glyph glyph-name="gbreve" unicode="&#x11f;" horiz-adv-x="543" 
d="M253 444q-67 0 -106.5 36t-39.5 105h72q0 -27 20.5 -48t53.5 -21t53.5 20.5t20.5 48.5h72q0 -69 -39.5 -105t-106.5 -36zM482 400l1 -404q0 -111 -62 -174t-171 -63q-78 0 -133 33.5t-80 95.5l117 47q11 -30 36.5 -47.5t59.5 -17.5q49 0 77.5 32t28.5 87v53
q-53 -50 -127 -50q-83 0 -140.5 60.5t-57.5 147.5q0 88 57.5 148t140.5 60q72 0 125 -48v40h128zM261 105q40 0 68 27.5t28 67.5t-28 67.5t-68 27.5t-67.5 -27.5t-27.5 -67.5t27.5 -67.5t67.5 -27.5z" />
    <glyph glyph-name="Gdotaccent" unicode="&#x120;" horiz-adv-x="692" 
d="M346 651q-28 0 -49 20.5t-21 49.5t20.5 49.5t49.5 20.5t50 -20.5t21 -49.5t-21 -49.5t-50 -20.5zM345 329h309v-29q0 -128 -90 -218t-218 -90t-218 90t-90 218t90 218t218 90q87 0 160 -45t113 -120l-114 -59q-23 44 -65 69.5t-94 25.5q-76 0 -127.5 -51.5t-51.5 -127.5
t51.5 -127.5t127.5 -51.5q55 0 99 28.5t65 76.5h-165v103z" />
    <glyph glyph-name="gdotaccent" unicode="&#x121;" horiz-adv-x="543" 
d="M253 451q-29 0 -49.5 20.5t-20.5 49.5t20.5 49.5t49.5 20.5t50 -20.5t21 -49.5t-21 -49.5t-50 -20.5zM482 400l1 -404q0 -111 -62 -174t-171 -63q-78 0 -133 33.5t-80 95.5l117 47q11 -30 36.5 -47.5t59.5 -17.5q49 0 77.5 32t28.5 87v53q-53 -50 -127 -50
q-83 0 -140.5 60.5t-57.5 147.5q0 88 57.5 148t140.5 60q72 0 125 -48v40h128zM261 105q40 0 68 27.5t28 67.5t-28 67.5t-68 27.5t-67.5 -27.5t-27.5 -67.5t27.5 -67.5t67.5 -27.5z" />
    <glyph glyph-name="Gcommaaccent" unicode="&#x122;" horiz-adv-x="692" 
d="M345 329h309v-29q0 -128 -90 -218t-218 -90t-218 90t-90 218t90 218t218 90q87 0 160 -45t113 -120l-114 -59q-23 44 -65 69.5t-94 25.5q-76 0 -127.5 -51.5t-51.5 -127.5t51.5 -127.5t127.5 -51.5q55 0 99 28.5t65 76.5h-165v103zM235 -200l56 152h110l-105 -152h-61z
" />
    <glyph glyph-name="gcommaaccent" unicode="&#x123;" horiz-adv-x="543" 
d="M379 607l-56 -152h-110l105 152h61zM482 400l1 -404q0 -111 -62 -174t-171 -63q-78 0 -133 33.5t-80 95.5l117 47q11 -30 36.5 -47.5t59.5 -17.5q49 0 77.5 32t28.5 87v53q-53 -50 -127 -50q-83 0 -140.5 60.5t-57.5 147.5q0 88 57.5 148t140.5 60q72 0 125 -48v40h128z
M261 105q40 0 68 27.5t28 67.5t-28 67.5t-68 27.5t-67.5 -27.5t-27.5 -67.5t27.5 -67.5t67.5 -27.5z" />
    <glyph glyph-name="Hbar" unicode="&#x126;" horiz-adv-x="626" 
d="M613 499v-52h-47v-447h-131v242h-244v-242h-132v447h-45v52h45v101h132v-101h244v101h131v-101h47zM435 359v88h-244v-88h244z" />
    <glyph glyph-name="hbar" unicode="&#x127;" horiz-adv-x="494" 
d="M299 408q61 0 103 -44.5t42 -110.5v-253h-128v232q0 27 -17 45t-44 18q-28 0 -48 -21t-20 -48v-226h-128v493h-51v68h51v124h128v-124h101v-68h-101v-138q45 53 112 53z" />
    <glyph glyph-name="Imacron" unicode="&#x12a;" horiz-adv-x="259" 
d="M9 664v80h241v-80h-241zM64 0v600h132v-600h-132z" />
    <glyph glyph-name="imacron" unicode="&#x12b;" horiz-adv-x="256" 
d="M8 464v80h241v-80h-241zM64 0v400h128v-400h-128z" />
    <glyph glyph-name="Iogonek" unicode="&#x12e;" horiz-adv-x="259" 
d="M203 -102l40 -56q-52 -54 -127 -49q-47 4 -74 32t-27 69q0 66 81 106h-32v600h132v-600q-39 -18 -56 -28t-32 -27.5t-15 -39.5q0 -50 44 -50q42 0 66 43z" />
    <glyph glyph-name="iogonek" unicode="&#x12f;" horiz-adv-x="256" 
d="M128 451q-28 0 -49 20.5t-21 49.5t20.5 49.5t49.5 20.5t50 -20.5t21 -49.5t-21 -49.5t-50 -20.5zM187 -102l40 -56q-52 -54 -127 -49q-47 4 -74 32t-27 69q0 66 81 106h-16v400h128v-400h-12q-39 -18 -56 -28t-32 -27.5t-15 -39.5q0 -50 44 -50q42 0 66 43z" />
    <glyph glyph-name="Idotaccent" unicode="&#x130;" horiz-adv-x="259" 
d="M129 651q-29 0 -49.5 20.5t-20.5 49.5t20.5 49.5t49.5 20.5t50 -20.5t21 -49.5t-21 -49.5t-50 -20.5zM64 0v600h132v-600h-132z" />
    <glyph glyph-name="dotlessi" unicode="&#x131;" horiz-adv-x="256" 
d="M64 0v400h128v-400h-128z" />
    <glyph glyph-name="Kcommaaccent" unicode="&#x136;" horiz-adv-x="589" 
d="M321 333l289 -333h-176l-224 274h-19v-274h-132v600h132v-212h23l196 212h170zM189 -200l56 152h110l-105 -152h-61z" />
    <glyph glyph-name="kcommaaccent" unicode="&#x137;" horiz-adv-x="481" 
d="M309 219l190 -219h-166l-141 184v-184h-127v685h127v-429l139 144h153zM147 -200l56 152h110l-105 -152h-61z" />
    <glyph glyph-name="Lacute" unicode="&#x139;" horiz-adv-x="392" 
d="M285 800l-125 -149h-84l88 149h121zM191 117h199v-117h-331v600h132v-483z" />
    <glyph glyph-name="lacute" unicode="&#x13a;" horiz-adv-x="246" 
d="M74 736l88 149h121l-125 -149h-84zM59 0v685h128v-685h-128z" />
    <glyph glyph-name="Lcommaaccent" unicode="&#x13b;" horiz-adv-x="392" 
d="M191 117h199v-117h-331v600h132v-483zM114 -200l56 152h110l-105 -152h-61z" />
    <glyph glyph-name="lcommaaccent" unicode="&#x13c;" horiz-adv-x="246" 
d="M59 0v685h128v-685h-128zM73 -200h-61l56 152h110z" />
    <glyph glyph-name="Lcaron" unicode="&#x13d;" horiz-adv-x="431" 
d="M191 600v-483h199v-117h-331v600h132zM445 600l-108 -242h-66l68 242h106z" />
    <glyph glyph-name="lcaron" unicode="&#x13e;" horiz-adv-x="389" 
d="M59 0v685h128v-685h-128zM300 443h-66l68 242h106z" />
    <glyph glyph-name="ldot" unicode="&#x140;" horiz-adv-x="246" 
d="M59 0v685h128v-685h-128zM260 244q-18 0 -31.5 13.5t-13.5 32.5q0 18 13.5 31.5t31.5 13.5t32.5 -13.5t14.5 -31.5q0 -19 -14.5 -32.5t-32.5 -13.5z" />
    <glyph glyph-name="Lslash" unicode="&#x141;" horiz-adv-x="392" 
d="M191 117h199v-117h-331v182l-51 -54l-52 47l103 108v317h132v-178l48 50l54 -45l-102 -107v-203z" />
    <glyph glyph-name="lslash" unicode="&#x142;" horiz-adv-x="246" 
d="M286 457l-99 -104v-353h-128v219l-49 -51l-50 45l99 104v368h128v-233l47 49z" />
    <glyph glyph-name="Nacute" unicode="&#x143;" horiz-adv-x="681" 
d="M503 800l-125 -149h-84l88 149h121zM490 600h131v-600h-136l-294 398v-398h-132v600h136l295 -397v397z" />
    <glyph glyph-name="nacute" unicode="&#x144;" horiz-adv-x="495" 
d="M414 600l-125 -149h-84l88 149h121zM301 408q60 0 101.5 -44.5t41.5 -110.5v-253h-127v232q0 27 -17.5 45t-45.5 18t-47.5 -18t-19.5 -45v-232h-128v400h128v-49q46 57 114 57z" />
    <glyph glyph-name="Ncommaaccent" unicode="&#x145;" horiz-adv-x="681" 
d="M490 600h131v-600h-136l-294 398v-398h-132v600h136l295 -397v397zM227 -200l56 152h110l-105 -152h-61z" />
    <glyph glyph-name="ncommaaccent" unicode="&#x146;" horiz-adv-x="495" 
d="M301 408q60 0 101.5 -44.5t41.5 -110.5v-253h-127v232q0 27 -17.5 45t-45.5 18t-47.5 -18t-19.5 -45v-232h-128v400h128v-49q46 57 114 57zM141 -200l56 152h110l-105 -152h-61z" />
    <glyph glyph-name="Ncaron" unicode="&#x147;" horiz-adv-x="681" 
d="M381 651h-77l-98 149h80l57 -78l57 78h80zM490 600h131v-600h-136l-294 398v-398h-132v600h136l295 -397v397z" />
    <glyph glyph-name="ncaron" unicode="&#x148;" horiz-adv-x="495" 
d="M292 451h-77l-98 149h80l57 -78l57 78h80zM301 408q60 0 101.5 -44.5t41.5 -110.5v-253h-127v232q0 27 -17.5 45t-45.5 18t-47.5 -18t-19.5 -45v-232h-128v400h128v-49q46 57 114 57z" />
    <glyph glyph-name="Eng" unicode="&#x14a;" horiz-adv-x="681" 
d="M490 600h131v-600v-65q0 -154 -196 -154v86q15 0 24 2t18.5 9t13.5 22.5t4 40.5v59l-294 398v-398h-132v600h136l295 -397v397z" />
    <glyph glyph-name="eng" unicode="&#x14b;" horiz-adv-x="495" 
d="M301 408q60 0 101.5 -44.5t41.5 -110.5v-253v-68q0 -84 -48.5 -119t-137.5 -35v76q15 0 23.5 2t18 9t13.5 22t4 40v305q0 28 -18 45.5t-45 17.5q-29 0 -48 -17.5t-19 -45.5v-232h-128v400h128v-49q46 57 114 57z" />
    <glyph glyph-name="Omacron" unicode="&#x14c;" horiz-adv-x="691" 
d="M225 664v80h241v-80h-241zM345 -8q-127 0 -217.5 90t-90.5 218t90.5 218t217.5 90q128 0 218 -90t90 -218t-90 -218t-218 -90zM345 121q76 0 127.5 51.5t51.5 127.5t-51.5 127.5t-127.5 51.5t-127 -51.5t-51 -127.5t51 -127.5t127 -51.5z" />
    <glyph glyph-name="omacron" unicode="&#x14d;" horiz-adv-x="508" 
d="M134 464v80h241v-80h-241zM254 -8q-100 0 -161.5 58.5t-61.5 149.5t61.5 149.5t161.5 58.5q99 0 160.5 -58.5t61.5 -149.5t-61.5 -149.5t-160.5 -58.5zM254 105q41 1 68 28t27 67t-27 67t-68 28q-41 -1 -68 -28t-27 -67t27 -67t68 -28z" />
    <glyph glyph-name="Ohungarumlaut" unicode="&#x150;" horiz-adv-x="691" 
d="M220 651l87 149h120l-124 -149h-83zM381 651l87 149h120l-124 -149h-83zM345 -8q-127 0 -217.5 90t-90.5 218t90.5 218t217.5 90q128 0 218 -90t90 -218t-90 -218t-218 -90zM345 121q76 0 127.5 51.5t51.5 127.5t-51.5 127.5t-127.5 51.5t-127 -51.5t-51 -127.5
t51 -127.5t127 -51.5z" />
    <glyph glyph-name="ohungarumlaut" unicode="&#x151;" horiz-adv-x="508" 
d="M129 451l87 149h120l-124 -149h-83zM290 451l87 149h120l-124 -149h-83zM254 -8q-100 0 -161.5 58.5t-61.5 149.5t61.5 149.5t161.5 58.5q99 0 160.5 -58.5t61.5 -149.5t-61.5 -149.5t-160.5 -58.5zM254 105q41 1 68 28t27 67t-27 67t-68 28q-41 -1 -68 -28t-27 -67
t27 -67t68 -28z" />
    <glyph glyph-name="OE" unicode="&#x152;" horiz-adv-x="826" 
d="M785 487h-220v-130h186v-114h-186v-130h220v-113h-339v8q-51 -16 -101 -16q-127 0 -217.5 90t-90.5 218t90.5 218t217.5 90q50 0 101 -16v8h339v-113zM345 119q55 0 101 31v300q-46 31 -101 31q-76 0 -128 -52.5t-52 -128.5t52 -128.5t128 -52.5z" />
    <glyph glyph-name="oe" unicode="&#x153;" horiz-adv-x="816" 
d="M786 201v-22h-306q8 -92 93 -92q66 0 84 51h123q-15 -67 -69 -106.5t-136 -39.5q-100 0 -162 57q-62 -57 -159 -57q-100 0 -161.5 58.5t-61.5 149.5t61.5 149.5t161.5 58.5q97 0 159 -57q61 58 158 58t156 -57t59 -151zM573 311q-64 0 -85 -55h166q-20 55 -81 55z
M254 105q41 1 68 28t27 67t-27 67t-68 28q-41 -1 -68 -28t-27 -67t27 -67t68 -28z" />
    <glyph glyph-name="Racute" unicode="&#x154;" horiz-adv-x="535" 
d="M432 800l-125 -149h-84l88 149h121zM372 247l168 -247h-148l-148 232h-53v-232h-132v600h255q77 0 128 -53.5t51 -130.5q0 -61 -33.5 -107t-87.5 -62zM294 341q32 0 52.5 20t20.5 51t-20.5 51t-52.5 20h-103v-142h103z" />
    <glyph glyph-name="racute" unicode="&#x155;" horiz-adv-x="330" 
d="M338 600l-125 -149h-84l88 149h121zM187 345q42 63 112 63q21 0 33 -4v-113q-18 4 -37 4q-48 0 -78 -27.5t-30 -76.5v-191h-128v400h128v-55z" />
    <glyph glyph-name="Rcommaaccent" unicode="&#x156;" horiz-adv-x="535" 
d="M372 247l168 -247h-148l-148 232h-53v-232h-132v600h255q77 0 128 -53.5t51 -130.5q0 -61 -33.5 -107t-87.5 -62zM294 341q32 0 52.5 20t20.5 51t-20.5 51t-52.5 20h-103v-142h103zM161 -200l56 152h110l-105 -152h-61z" />
    <glyph glyph-name="rcommaaccent" unicode="&#x157;" horiz-adv-x="330" 
d="M299 408q21 0 33 -4v-113q-18 4 -37 4q-48 0 -78 -27.5t-30 -76.5v-191h-128v400h128v-55q42 63 112 63zM12 -200l56 152h110l-105 -152h-61z" />
    <glyph glyph-name="Rcaron" unicode="&#x158;" horiz-adv-x="535" 
d="M310 651h-77l-98 149h80l57 -78l57 78h80zM372 247l168 -247h-148l-148 232h-53v-232h-132v600h255q77 0 128 -53.5t51 -130.5q0 -61 -33.5 -107t-87.5 -62zM294 341q32 0 52.5 20t20.5 51t-20.5 51t-52.5 20h-103v-142h103z" />
    <glyph glyph-name="rcaron" unicode="&#x159;" horiz-adv-x="330" 
d="M216 451h-77l-98 149h80l57 -78l57 78h80zM299 408q21 0 33 -4v-113q-18 4 -37 4q-48 0 -78 -27.5t-30 -76.5v-191h-128v400h128v-55q42 63 112 63z" />
    <glyph glyph-name="Sacute" unicode="&#x15a;" horiz-adv-x="474" 
d="M187 651l88 149h121l-125 -149h-84zM244 -8q-76 0 -136.5 37.5t-91.5 96.5l109 68q37 -78 120 -78q34 0 54 15t20 40q0 28 -28.5 47t-69.5 32t-81.5 31t-69 55.5t-28.5 94.5q0 85 57 131t135 46q112 0 185 -85l-88 -84q-47 52 -98 52q-25 0 -41.5 -13t-16.5 -37t20.5 -41
t51 -26t66.5 -24.5t66.5 -34t51 -56t20.5 -89.5q0 -81 -60 -129.5t-147 -48.5z" />
    <glyph glyph-name="sacute" unicode="&#x15b;" horiz-adv-x="352" 
d="M141 451l88 149h121l-125 -149h-84zM188 -8q-56 0 -104 25.5t-65 70.5l94 47q22 -42 67 -42q35 0 35 25q0 19 -48 38q-27 10 -40.5 16t-38 21.5t-36 37t-11.5 49.5q0 53 41.5 90.5t107.5 37.5q82 0 135 -53l-64 -72q-23 29 -62 29q-32 0 -32 -23q0 -10 9 -16.5t34 -16.5
q26 -10 44 -19.5t38 -25t30.5 -38.5t10.5 -51q0 -57 -39.5 -93.5t-105.5 -36.5z" />
    <glyph glyph-name="Scedilla" unicode="&#x15e;" horiz-adv-x="474" 
d="M451 170q0 -75 -51.5 -122.5t-130.5 -54.5l-24 -40q38 7 65 -14.5t27 -58.5q0 -38 -25.5 -63.5t-63.5 -25.5q-30 0 -57.5 18t-36.5 44l56 18q13 -22 38 -22q13 0 22 9t9 22q0 21 -18.5 26.5t-43.5 -7.5l-45 26l38 69q-65 8 -116 44t-78 88l109 68q37 -78 120 -78
q34 0 54 15t20 40q0 28 -28.5 47t-69.5 32t-81.5 31t-69 55.5t-28.5 94.5q0 85 57 131t135 46q112 0 185 -85l-88 -84q-47 52 -98 52q-25 0 -41.5 -13t-16.5 -37t20.5 -41t51 -26t66.5 -24.5t66.5 -34t51 -56t20.5 -89.5z" />
    <glyph glyph-name="scedilla" unicode="&#x15f;" horiz-adv-x="352" 
d="M333 122q0 -52 -32 -86.5t-88 -41.5l-23 -40q38 7 65 -14.5t27 -58.5t-26 -63t-63 -26q-31 0 -58 18t-36 44l56 18q13 -22 38 -22q13 0 22 9t9 22q0 21 -18 26.5t-44 -7.5l-45 26l38 68q-47 7 -84.5 31.5t-51.5 62.5l94 47q22 -42 67 -42q35 0 35 25q0 19 -48 38
q-27 10 -40.5 16t-38 21.5t-36 37t-11.5 49.5q0 53 41.5 90.5t107.5 37.5q82 0 135 -53l-64 -72q-23 29 -62 29q-32 0 -32 -23q0 -10 9 -16.5t34 -16.5q26 -10 44 -19.5t38 -25t30.5 -38.5t10.5 -51z" />
    <glyph glyph-name="Scaron" unicode="&#x160;" horiz-adv-x="474" 
d="M197 651l-98 149h80l57 -78l57 78h80l-99 -149h-77zM244 -8q-76 0 -136.5 37.5t-91.5 96.5l109 68q37 -78 120 -78q34 0 54 15t20 40q0 28 -28.5 47t-69.5 32t-81.5 31t-69 55.5t-28.5 94.5q0 85 57 131t135 46q112 0 185 -85l-88 -84q-47 52 -98 52q-25 0 -41.5 -13
t-16.5 -37t20.5 -41t51 -26t66.5 -24.5t66.5 -34t51 -56t20.5 -89.5q0 -81 -60 -129.5t-147 -48.5z" />
    <glyph glyph-name="scaron" unicode="&#x161;" horiz-adv-x="352" 
d="M151 451l-98 149h80l57 -78l57 78h80l-99 -149h-77zM188 -8q-56 0 -104 25.5t-65 70.5l94 47q22 -42 67 -42q35 0 35 25q0 19 -48 38q-27 10 -40.5 16t-38 21.5t-36 37t-11.5 49.5q0 53 41.5 90.5t107.5 37.5q82 0 135 -53l-64 -72q-23 29 -62 29q-32 0 -32 -23
q0 -10 9 -16.5t34 -16.5q26 -10 44 -19.5t38 -25t30.5 -38.5t10.5 -51q0 -57 -39.5 -93.5t-105.5 -36.5z" />
    <glyph glyph-name="uni0162" unicode="&#x162;" horiz-adv-x="424" 
d="M278 0h-36l-27 -46q38 7 65 -14.5t27 -58.5t-25.5 -63t-63.5 -26q-30 0 -57.5 18t-36.5 44l56 18q13 -22 38 -22q13 0 22 9t9 22q0 21 -18.5 26.5t-43.5 -7.5l-45 26l41 74h-36v483h-152v117h434v-117h-151v-483z" />
    <glyph glyph-name="uni0163" unicode="&#x163;" horiz-adv-x="320" 
d="M237 -46q38 7 65 -14.5t27 -58.5t-25.5 -63t-63.5 -26q-30 0 -57.5 18t-36.5 44l56 18q13 -22 38 -22q13 0 22 9t9 22q0 21 -18.5 26.5t-43.5 -7.5l-45 26l38 69q-54 11 -89 52t-35 96v158h-67v99h67v154h127v-154h95v-99h-95v-143q0 -25 13 -39.5t33 -14.5h48v-99
q-11 -8 -39 -11z" />
    <glyph glyph-name="Tcaron" unicode="&#x164;" horiz-adv-x="424" 
d="M250 651h-77l-98 149h80l57 -78l57 78h80zM429 600v-117h-151v-483h-131v483h-152v117h434z" />
    <glyph glyph-name="tcaron" unicode="&#x165;" horiz-adv-x="394" 
d="M313 672h106l-108 -242h-66zM205 554v-154h95v-99h-95v-143q0 -25 13 -39.5t33 -14.5h48v-99q-19 -13 -64 -13q-64 0 -110.5 44t-46.5 107v158h-67v99h67v154h127z" />
    <glyph glyph-name="Tbar" unicode="&#x166;" horiz-adv-x="424" 
d="M429 483h-151v-149h74v-68h-74v-266h-131v266h-75v68h75v149h-152v117h434v-117z" />
    <glyph glyph-name="tbar" unicode="&#x167;" horiz-adv-x="320" 
d="M300 301h-95v-67h91v-68h-91v-8q0 -25 13 -39.5t33 -14.5h48v-99q-19 -13 -64 -13q-64 0 -110.5 44t-46.5 107v23h-62v68h62v67h-67v99h67v154h127v-154h95v-99z" />
    <glyph glyph-name="Umacron" unicode="&#x16a;" horiz-adv-x="611" 
d="M185 664v80h241v-80h-241zM305 -8q-105 0 -177 57.5t-72 142.5v408h132v-383q0 -46 33.5 -77t83.5 -31t84 31t34 77v383h132v-408q0 -85 -72 -142.5t-178 -57.5z" />
    <glyph glyph-name="umacron" unicode="&#x16b;" horiz-adv-x="477" 
d="M121 464v80h241v-80h-241zM238 -8q-90 0 -139 43t-49 118v247h128v-230q0 -28 17 -46.5t43 -18.5t43.5 18.5t17.5 46.5v230h127v-247q0 -75 -49 -118t-139 -43z" />
    <glyph glyph-name="Uring" unicode="&#x16e;" horiz-adv-x="611" 
d="M305 632q-41 0 -69.5 29t-28.5 69t28.5 68t69.5 28q40 0 68 -28t28 -68q0 -41 -28 -69.5t-68 -28.5zM305 684q19 0 32 12.5t13 33.5q0 18 -13.5 32t-31.5 14q-19 0 -31.5 -13.5t-12.5 -32.5q0 -21 12 -33.5t32 -12.5zM305 -8q-105 0 -177 57.5t-72 142.5v408h132v-383
q0 -46 33.5 -77t83.5 -31t84 31t34 77v383h132v-408q0 -85 -72 -142.5t-178 -57.5z" />
    <glyph glyph-name="uring" unicode="&#x16f;" horiz-adv-x="477" 
d="M241 432q-41 0 -69.5 29t-28.5 69t28.5 68t69.5 28q40 0 68 -28t28 -68q0 -41 -28 -69.5t-68 -28.5zM241 484q19 0 32 12.5t13 33.5q0 18 -13.5 32t-31.5 14q-19 0 -31.5 -13.5t-12.5 -32.5q0 -21 12 -33.5t32 -12.5zM238 -8q-90 0 -139 43t-49 118v247h128v-230
q0 -28 17 -46.5t43 -18.5t43.5 18.5t17.5 46.5v230h127v-247q0 -75 -49 -118t-139 -43z" />
    <glyph glyph-name="Uhungarumlaut" unicode="&#x170;" horiz-adv-x="611" 
d="M180 651l87 149h120l-124 -149h-83zM341 651l87 149h120l-124 -149h-83zM305 -8q-105 0 -177 57.5t-72 142.5v408h132v-383q0 -46 33.5 -77t83.5 -31t84 31t34 77v383h132v-408q0 -85 -72 -142.5t-178 -57.5z" />
    <glyph glyph-name="uhungarumlaut" unicode="&#x171;" horiz-adv-x="477" 
d="M116 451l87 149h120l-124 -149h-83zM277 451l87 149h120l-124 -149h-83zM238 -8q-90 0 -139 43t-49 118v247h128v-230q0 -28 17 -46.5t43 -18.5t43.5 18.5t17.5 46.5v230h127v-247q0 -75 -49 -118t-139 -43z" />
    <glyph glyph-name="Uogonek" unicode="&#x172;" horiz-adv-x="611" 
d="M423 600h132v-408q0 -63 -41 -112t-109 -72q-60 -32 -60 -74q0 -50 44 -50q42 0 66 43l40 -56q-52 -54 -127 -49q-47 4 -74 32t-27 69q0 40 29 69q-102 3 -171 60t-69 140v408h132v-383q0 -46 33.5 -77t83.5 -31t84 31t34 77v383z" />
    <glyph glyph-name="uogonek" unicode="&#x173;" horiz-adv-x="477" 
d="M426 153q0 -84 -61 -127q-17 -12 -44 -22q-59 -31 -59 -73q0 -50 44 -50q42 0 66 43l40 -56q-52 -54 -127 -49q-47 4 -74 32t-27 69q0 39 32 73q-79 5 -122.5 47.5t-43.5 112.5v247h128v-230q0 -28 17 -46.5t43 -18.5t43.5 18.5t17.5 46.5v230h127v-247z" />
    <glyph glyph-name="Wcircumflex" unicode="&#x174;" horiz-adv-x="822" 
d="M412 729l-57 -78h-80l98 149h77l99 -149h-80zM697 600h139l-164 -600h-152l-109 422l-109 -422h-152l-164 600h139l108 -418l114 418h110h18l115 -416z" />
    <glyph glyph-name="wcircumflex" unicode="&#x175;" horiz-adv-x="684" 
d="M343 529l-57 -78h-80l98 149h77l99 -149h-80zM546 400h142l-136 -400h-135l-75 226l-75 -226h-134l-138 400h145l67 -265l85 265h100l86 -266z" />
    <glyph glyph-name="Ycircumflex" unicode="&#x176;" horiz-adv-x="527" 
d="M264 729l-57 -78h-80l98 149h77l99 -149h-80zM539 600l-209 -317v-283h-132v282l-211 318h149l128 -203l128 203h147z" />
    <glyph glyph-name="ycircumflex" unicode="&#x177;" horiz-adv-x="454" 
d="M226 529l-57 -78h-80l98 149h77l99 -149h-80zM326 400h132l-256 -640h-134l94 231l-167 409h133l100 -265z" />
    <glyph glyph-name="Ydieresis" unicode="&#x178;" horiz-adv-x="527" 
d="M180 670q-24 0 -42 18t-18 42q0 25 18 42.5t42 17.5q25 0 43 -17.5t18 -42.5q0 -24 -18 -42t-43 -18zM348 670q-24 0 -42 18t-18 42q0 25 18 42.5t42 17.5q26 0 43 -17t17 -43q0 -24 -17.5 -42t-42.5 -18zM539 600l-209 -317v-283h-132v282l-211 318h149l128 -203
l128 203h147z" />
    <glyph glyph-name="Zacute" unicode="&#x179;" horiz-adv-x="512" 
d="M426 800l-125 -149h-84l88 149h121zM483 600l-253 -483h253v-117h-460l255 483h-230v117h435z" />
    <glyph glyph-name="zacute" unicode="&#x17a;" horiz-adv-x="391" 
d="M368 600l-125 -149h-84l88 149h121zM377 400l-168 -294h162v-106h-350l167 294h-146v106h335z" />
    <glyph glyph-name="Zdotaccent" unicode="&#x17b;" horiz-adv-x="512" 
d="M266 651q-28 0 -49 20.5t-21 49.5t20.5 49.5t49.5 20.5t50 -20.5t21 -49.5t-21 -49.5t-50 -20.5zM483 600l-253 -483h253v-117h-460l255 483h-230v117h435z" />
    <glyph glyph-name="zdotaccent" unicode="&#x17c;" horiz-adv-x="391" 
d="M208 451q-28 0 -49 20.5t-21 49.5t20.5 49.5t49.5 20.5t50 -20.5t21 -49.5t-21 -49.5t-50 -20.5zM377 400l-168 -294h162v-106h-350l167 294h-146v106h335z" />
    <glyph glyph-name="Zcaron" unicode="&#x17d;" horiz-adv-x="512" 
d="M304 651h-77l-98 149h80l57 -78l57 78h80zM483 600l-253 -483h253v-117h-460l255 483h-230v117h435z" />
    <glyph glyph-name="zcaron" unicode="&#x17e;" horiz-adv-x="391" 
d="M246 451h-77l-98 149h80l57 -78l57 78h80zM377 400l-168 -294h162v-106h-350l167 294h-146v106h335z" />
    <glyph glyph-name="florin" unicode="&#x192;" horiz-adv-x="403" 
d="M331 518q-31 0 -51 -19.5t-25 -53.5l-7 -45h107l-15 -95h-107l-80 -505h-114l80 505h-67l15 95h67l10 62q10 62 60.5 104t113.5 42q44 0 63 -15l-10 -87q-15 12 -40 12z" />
    <glyph glyph-name="uni01CD" unicode="&#x1cd;" horiz-adv-x="554" 
d="M316 651h-77l-98 149h80l57 -78l57 78h80zM426 0l-37 113h-224l-37 -113h-141l216 600h148l216 -600h-141zM200 223h154l-77 238z" />
    <glyph glyph-name="uni01CE" unicode="&#x1ce;" horiz-adv-x="538" 
d="M289 451h-77l-98 149h80l57 -78l57 78h80zM505 104h18v-104q-18 -8 -34 -8q-82 0 -123 68q-52 -68 -137 -68q-83 0 -140.5 60.5t-57.5 147.5t57.5 147.5t140.5 60.5q66 0 114 -43v35h127v-257q0 -39 35 -39zM254 105q39 0 67 27.5t28 67.5t-28 67.5t-67 27.5
q-40 0 -67.5 -27.5t-27.5 -67.5t27.5 -67.5t67.5 -27.5z" />
    <glyph glyph-name="uni01CF" unicode="&#x1cf;" horiz-adv-x="259" 
d="M90 651l-98 149h80l57 -78l57 78h80l-99 -149h-77zM64 0v600h132v-600h-132z" />
    <glyph glyph-name="uni01D0" unicode="&#x1d0;" horiz-adv-x="256" 
d="M89 451l-98 149h80l57 -78l57 78h80l-99 -149h-77zM64 0v400h128v-400h-128z" />
    <glyph glyph-name="uni01D1" unicode="&#x1d1;" horiz-adv-x="691" 
d="M306 651l-98 149h80l57 -78l57 78h80l-99 -149h-77zM345 -8q-127 0 -217.5 90t-90.5 218t90.5 218t217.5 90q128 0 218 -90t90 -218t-90 -218t-218 -90zM345 121q76 0 127.5 51.5t51.5 127.5t-51.5 127.5t-127.5 51.5t-127 -51.5t-51 -127.5t51 -127.5t127 -51.5z" />
    <glyph glyph-name="uni01D2" unicode="&#x1d2;" horiz-adv-x="508" 
d="M215 451l-98 149h80l57 -78l57 78h80l-99 -149h-77zM254 -8q-100 0 -161.5 58.5t-61.5 149.5t61.5 149.5t161.5 58.5q99 0 160.5 -58.5t61.5 -149.5t-61.5 -149.5t-160.5 -58.5zM254 105q41 1 68 28t27 67t-27 67t-68 28q-41 -1 -68 -28t-27 -67t27 -67t68 -28z" />
    <glyph glyph-name="uni01D3" unicode="&#x1d3;" horiz-adv-x="611" 
d="M266 651l-98 149h80l57 -78l57 78h80l-99 -149h-77zM305 -8q-105 0 -177 57.5t-72 142.5v408h132v-383q0 -46 33.5 -77t83.5 -31t84 31t34 77v383h132v-408q0 -85 -72 -142.5t-178 -57.5z" />
    <glyph glyph-name="uni01D4" unicode="&#x1d4;" horiz-adv-x="477" 
d="M202 451l-98 149h80l57 -78l57 78h80l-99 -149h-77zM238 -8q-90 0 -139 43t-49 118v247h128v-230q0 -28 17 -46.5t43 -18.5t43.5 18.5t17.5 46.5v230h127v-247q0 -75 -49 -118t-139 -43z" />
    <glyph glyph-name="Scommaaccent" unicode="&#x218;" horiz-adv-x="474" 
d="M244 -8q-76 0 -136.5 37.5t-91.5 96.5l109 68q37 -78 120 -78q34 0 54 15t20 40q0 28 -28.5 47t-69.5 32t-81.5 31t-69 55.5t-28.5 94.5q0 85 57 131t135 46q112 0 185 -85l-88 -84q-47 52 -98 52q-25 0 -41.5 -13t-16.5 -37t20.5 -41t51 -26t66.5 -24.5t66.5 -34t51 -56
t20.5 -89.5q0 -81 -60 -129.5t-147 -48.5zM192 -201h-61l56 152h110z" />
    <glyph glyph-name="scommaaccent" unicode="&#x219;" horiz-adv-x="352" 
d="M188 -8q-56 0 -104 25.5t-65 70.5l94 47q22 -42 67 -42q35 0 35 25q0 19 -48 38q-27 10 -40.5 16t-38 21.5t-36 37t-11.5 49.5q0 53 41.5 90.5t107.5 37.5q82 0 135 -53l-64 -72q-23 29 -62 29q-32 0 -32 -23q0 -10 9 -16.5t34 -16.5q26 -10 44 -19.5t38 -25t30.5 -38.5
t10.5 -51q0 -57 -39.5 -93.5t-105.5 -36.5zM137 -200h-61l56 152h110z" />
    <glyph glyph-name="uni021A" unicode="&#x21a;" horiz-adv-x="424" 
d="M429 600v-117h-151v-483h-131v483h-152v117h434zM101 -200l56 152h110l-105 -152h-61z" />
    <glyph glyph-name="uni021B" unicode="&#x21b;" horiz-adv-x="320" 
d="M300 301h-95v-143q0 -25 13 -39.5t33 -14.5h48v-99q-19 -13 -64 -13q-64 0 -110.5 44t-46.5 107v158h-67v99h67v154h127v-154h95v-99zM123 -200l56 152h110l-105 -152h-61z" />
    <glyph glyph-name="uni0237" unicode="&#x237;" horiz-adv-x="246" 
d="M30 -240q-44 0 -64 13v99h48q20 0 33 14.5t13 39.5v474h127v-489q0 -63 -46.5 -107t-110.5 -44z" />
    <glyph glyph-name="circumflex" unicode="&#x2c6;" horiz-adv-x="89" 
d="M123 451h-80l98 149h77l99 -149h-80l-57 78z" />
    <glyph glyph-name="caron" unicode="&#x2c7;" horiz-adv-x="89" 
d="M141 451l-98 149h80l57 -78l57 78h80l-99 -149h-77z" />
    <glyph glyph-name="breve" unicode="&#x2d8;" horiz-adv-x="59" 
d="M244 444q-67 0 -106.5 36t-39.5 105h72q0 -27 21 -48t53 -21q33 0 53.5 20.5t20.5 48.5h72q0 -69 -39.5 -105t-106.5 -36z" />
    <glyph glyph-name="dotaccent" unicode="&#x2d9;" horiz-adv-x="76" 
d="M141 451q-29 0 -49.5 20.5t-20.5 49.5t20.5 49.5t49.5 20.5t50 -20.5t21 -49.5t-21 -49.5t-50 -20.5z" />
    <glyph glyph-name="ring" unicode="&#x2da;" horiz-adv-x="63" 
d="M88 432q-40 0 -69 29t-29 69t28.5 68t69.5 28q40 0 68 -28t28 -68q0 -41 -28 -69.5t-68 -28.5zM88 484q19 0 32 12.5t13 33.5q0 18 -13.5 32t-31.5 14q-19 0 -31.5 -13.5t-12.5 -32.5q0 -21 12 -33.5t32 -12.5z" />
    <glyph glyph-name="ogonek" unicode="&#x2db;" horiz-adv-x="70" 
d="M161 -207q-47 4 -74 32t-27 69q0 79 123 124l58 -18q-39 -18 -56 -28t-32 -27.5t-15 -39.5q0 -50 44 -50q42 0 66 43l40 -56q-52 -54 -127 -49z" />
    <glyph glyph-name="tilde" unicode="&#x2dc;" horiz-adv-x="48" 
d="M210 473q-49 0 -81 47q-8 12 -18 12q-23 0 -23 -54h-76q0 57 26 92.5t70 35.5q49 0 83 -47q7 -13 17 -13q23 0 23 54h76q0 -56 -25 -91.5t-72 -35.5z" />
    <glyph glyph-name="hungarumlaut" unicode="&#x2dd;" horiz-adv-x="77" 
d="M30 451l88 149h121l-125 -149h-84z" />
    <glyph glyph-name="gravecomb" unicode="&#x300;" 
d="M-20 451h-84l-125 149h121z" />
    <glyph glyph-name="acutecomb" unicode="&#x301;" 
d="M-212 451l88 149h121l-125 -149h-84z" />
    <glyph glyph-name="uni0302" unicode="&#x302;" 
d="M-237 451h-80l98 149h77l99 -149h-80l-57 78z" />
    <glyph glyph-name="tildecomb" unicode="&#x303;" 
d="M-111 473q-49 0 -81 47q-8 12 -18 12q-23 0 -23 -54h-76q0 57 26 92.5t70 35.5q49 0 83 -47q6 -13 17 -13q23 0 23 54h76q0 -56 -25 -91.5t-72 -35.5z" />
    <glyph glyph-name="uni0304" unicode="&#x304;" 
d="M-268 464v80h241v-80h-241z" />
    <glyph glyph-name="uni0306" unicode="&#x306;" 
d="M-283 444q-67 0 -106.5 36t-39.5 105h72q0 -27 20.5 -48t53.5 -21t53.5 20.5t20.5 48.5h72q0 -69 -39.5 -105t-106.5 -36z" />
    <glyph glyph-name="uni0307" unicode="&#x307;" 
d="M-142 451q-28 0 -49 20.5t-21 49.5t20.5 49.5t49.5 20.5t50 -20.5t21 -49.5t-21 -49.5t-50 -20.5z" />
    <glyph glyph-name="uni0308" unicode="&#x308;" 
d="M-277 470q-24 0 -42 18t-18 42q0 25 18 42.5t42 17.5q25 0 43 -17.5t18 -42.5q0 -24 -18 -42t-43 -18zM-109 470q-24 0 -42 18t-18 42q0 25 18 42.5t42 17.5q25 0 42.5 -17t17.5 -43q0 -24 -17.5 -42t-42.5 -18z" />
    <glyph glyph-name="uni030A" unicode="&#x30a;" 
d="M-86 432q-40 0 -69 29t-29 69t28.5 68t69.5 28q40 0 68 -28t28 -68q0 -41 -28 -69.5t-68 -28.5zM-86 484q19 0 32 12.5t13 33.5q0 18 -13.5 32t-31.5 14q-19 0 -31.5 -13.5t-12.5 -32.5q0 -21 12 -33.5t32 -12.5z" />
    <glyph glyph-name="uni030B" unicode="&#x30b;" 
d="M-323 451l87 149h120l-124 -149h-83zM-162 451l87 149h120l-124 -149h-83z" />
    <glyph glyph-name="uni030C" unicode="&#x30c;" 
d="M-227 451l-98 149h80l57 -78l57 78h80l-99 -149h-77z" />
    <glyph glyph-name="uni0312" unicode="&#x312;" 
d="M-58 636h61l-56 -152h-110z" />
    <glyph glyph-name="dotbelowcomb" unicode="&#x323;" 
d="M-94 -200q-28 0 -49 21t-21 49q0 29 20.5 50t49.5 21t50 -21t21 -50t-21 -49.5t-50 -20.5z" />
    <glyph glyph-name="uni0326" unicode="&#x326;" 
d="M-137 -80h-61l56 152h110z" />
    <glyph glyph-name="uni0327" unicode="&#x327;" 
d="M-112 -208q-30 0 -57.5 18t-36.5 44l56 18q13 -22 38 -22q13 0 22 9t9 22q0 21 -18.5 26.5t-43.5 -7.5l-45 26l41 74h59l-27 -46q38 7 65 -14.5t27 -58.5t-25.5 -63t-63.5 -26z" />
    <glyph glyph-name="uni0328" unicode="&#x328;" 
d="M-113 -207q-47 4 -74 32t-27 69q0 79 123 124l58 -18q-39 -18 -56 -28t-32 -27.5t-15 -39.5q0 -50 44 -50q42 0 66 43l40 -56q-52 -54 -127 -49z" />
    <glyph glyph-name="uni0335" unicode="&#x335;" 
d="M-415 166v68h280v-68h-280z" />
    <glyph glyph-name="uni0336" unicode="&#x336;" 
d="M-623 182v52h599v-52h-599z" />
    <glyph glyph-name="uni0337" unicode="&#x337;" 
d="M-422 88l260 273l49 -42l-261 -274z" />
    <glyph glyph-name="uni0338" unicode="&#x338;" 
d="M-526 -2l453 651l78 -47l-453 -650z" />
    <glyph glyph-name="uni0394" unicode="&#x394;" horiz-adv-x="645" 
d="M396 600l241 -600h-143h-406h-81l241 600h148zM194 114h257l-128 338z" />
    <glyph glyph-name="uni03A9" unicode="&#x3a9;" horiz-adv-x="691" 
d="M41 0v106h91v3q-30 34 -54 93.5t-24 124.5q0 119 81 197.5t212 78.5q134 0 212 -81t78 -195q0 -61 -23 -121t-58 -97v-3h93v-106h-265v80q50 29 81 86t31 136q0 86 -39 139.5t-108 53.5q-70 0 -112.5 -52.5t-42.5 -141.5q0 -78 33 -137.5t81 -83.5v-80h-267z" />
    <glyph glyph-name="uni03BC" unicode="&#x3bc;" horiz-adv-x="527" 
d="M328 400h127v-400h-127v42q-47 -50 -114 -50q-33 0 -64 14v-206h-93v600h127v-229q0 -29 20 -48.5t48 -19.5q32 0 54 19.5t22 48.5v229z" />
    <glyph glyph-name="pi" unicode="&#x3c0;" horiz-adv-x="571" 
d="M54 0q22 70 39 173.5t19 176.5q-62 0 -95 -9l-13 74q37 29 154 29h399l-9 -94h-67v-216q0 -90 11 -134h-115q-16 24 -16 127v223h-132q-2 -80 -19 -187t-40 -163h-116z" />
    <glyph glyph-name="Wgrave" unicode="&#x1e80;" horiz-adv-x="822" 
d="M461 651h-84l-125 149h121zM697 600h139l-164 -600h-152l-109 422l-109 -422h-152l-164 600h139l108 -418l114 418h110h18l115 -416z" />
    <glyph glyph-name="wgrave" unicode="&#x1e81;" horiz-adv-x="684" 
d="M392 451h-84l-125 149h121zM546 400h142l-136 -400h-135l-75 226l-75 -226h-134l-138 400h145l67 -265l85 265h100l86 -266z" />
    <glyph glyph-name="Wacute" unicode="&#x1e82;" horiz-adv-x="822" 
d="M572 800l-125 -149h-84l88 149h121zM697 600h139l-164 -600h-152l-109 422l-109 -422h-152l-164 600h139l108 -418l114 418h110h18l115 -416z" />
    <glyph glyph-name="wacute" unicode="&#x1e83;" horiz-adv-x="684" 
d="M503 600l-125 -149h-84l88 149h121zM546 400h142l-136 -400h-135l-75 226l-75 -226h-134l-138 400h145l67 -265l85 265h100l86 -266z" />
    <glyph glyph-name="Wdieresis" unicode="&#x1e84;" horiz-adv-x="822" 
d="M328 670q-24 0 -42 18t-18 42q0 25 18 42.5t42 17.5q25 0 43 -17.5t18 -42.5q0 -24 -18 -42t-43 -18zM496 670q-24 0 -42 18t-18 42q0 25 18 42.5t42 17.5q26 0 43 -17t17 -43q0 -24 -17.5 -42t-42.5 -18zM697 600h139l-164 -600h-152l-109 422l-109 -422h-152l-164 600
h139l108 -418l114 418h110h18l115 -416z" />
    <glyph glyph-name="wdieresis" unicode="&#x1e85;" horiz-adv-x="684" 
d="M259 470q-24 0 -42 18t-18 42q0 25 18 42.5t42 17.5q25 0 43 -17.5t18 -42.5q0 -24 -18 -42t-43 -18zM427 470q-24 0 -42 18t-18 42q0 25 18 42.5t42 17.5q25 0 42.5 -17t17.5 -43q0 -24 -17.5 -42t-42.5 -18zM546 400h142l-136 -400h-135l-75 226l-75 -226h-134
l-138 400h145l67 -265l85 265h100l86 -266z" />
    <glyph glyph-name="Ygrave" unicode="&#x1ef2;" horiz-adv-x="527" 
d="M313 651h-84l-125 149h121zM539 600l-209 -317v-283h-132v282l-211 318h149l128 -203l128 203h147z" />
    <glyph glyph-name="ygrave" unicode="&#x1ef3;" horiz-adv-x="454" 
d="M275 451h-84l-125 149h121zM326 400h132l-256 -640h-134l94 231l-167 409h133l100 -265z" />
    <glyph glyph-name="endash" unicode="&#x2013;" horiz-adv-x="525" 
d="M63 164v88h400v-88h-400z" />
    <glyph glyph-name="emdash" unicode="&#x2014;" horiz-adv-x="800" 
d="M0 164v88h800v-88h-800z" />
    <glyph glyph-name="quoteleft" unicode="&#x2018;" horiz-adv-x="218" 
d="M136 608h66l-68 -242h-106z" />
    <glyph glyph-name="quoteright" unicode="&#x2019;" horiz-adv-x="188" 
d="M105 372h-66l68 242h106z" />
    <glyph glyph-name="quotesinglbase" unicode="&#x201a;" horiz-adv-x="227" 
d="M100 -156h-66l68 242h106z" />
    <glyph glyph-name="quotedblleft" unicode="&#x201c;" horiz-adv-x="419" 
d="M151 608h66l-68 -242h-106zM322 608h66l-68 -242h-106z" />
    <glyph glyph-name="quotedblright" unicode="&#x201d;" horiz-adv-x="401" 
d="M89 416h-66l68 242h106zM261 416h-66l68 242h106z" />
    <glyph glyph-name="quotedblbase" unicode="&#x201e;" horiz-adv-x="408" 
d="M100 -156h-66l68 242h106zM277 -156h-66l68 242h106z" />
    <glyph glyph-name="dagger" unicode="&#x2020;" horiz-adv-x="547" 
d="M443 400v-80h-132v-456h-80v456h-128v80h128v136h80v-136h132z" />
    <glyph glyph-name="daggerdbl" unicode="&#x2021;" horiz-adv-x="547" 
d="M443 320h-132v-233h132v-80h-132v-143h-80v143h-128v80h128v233h-128v80h128v136h80v-136h132v-80z" />
    <glyph glyph-name="bullet" unicode="&#x2022;" horiz-adv-x="502" 
d="M251 104q-67 0 -115.5 47.5t-48.5 115.5q0 67 49 115.5t115 48.5t114.5 -48.5t48.5 -115.5q0 -68 -48 -115.5t-115 -47.5z" />
    <glyph glyph-name="ellipsis" unicode="&#x2026;" horiz-adv-x="804" 
d="M135 -8q-29 0 -50.5 21.5t-21.5 51.5t21.5 51.5t50.5 21.5q30 0 52 -21.5t22 -51.5t-22 -51.5t-52 -21.5zM404 -8q-29 0 -50.5 21.5t-21.5 51.5t21.5 51.5t50.5 21.5q30 0 52 -21.5t22 -51.5t-22 -51.5t-52 -21.5zM673 -8q-29 0 -50.5 21.5t-21.5 51.5t21.5 51.5
t50.5 21.5q30 0 52 -21.5t22 -51.5t-22 -51.5t-52 -21.5z" />
    <glyph glyph-name="perthousand" unicode="&#x2030;" horiz-adv-x="990" 
d="M174 313q-55 0 -93.5 43t-38.5 104t38.5 104.5t93.5 43.5q54 0 92 -43.5t38 -104.5t-38 -104t-92 -43zM78 0l402 600h132l-403 -600h-131zM174 408q13 0 24 15.5t11 36.5q0 22 -11 37.5t-24 15.5q-14 0 -25 -15.5t-11 -37.5q0 -21 11 -36.5t25 -15.5zM517 -8
q-55 0 -93 43t-38 105q0 61 38 104t93 43t93 -43t38 -104q0 -62 -38 -105t-93 -43zM819 -8q-55 0 -93 43t-38 105q0 61 38 104t93 43t93.5 -43t38.5 -104t-38.5 -104.5t-93.5 -43.5zM517 87q14 0 25 15.5t11 37.5q0 21 -11 36.5t-25 15.5t-24.5 -15.5t-10.5 -36.5
q0 -22 10.5 -37.5t24.5 -15.5zM819 87q14 0 24.5 15.5t10.5 37.5q0 21 -10.5 36.5t-24.5 15.5t-24.5 -15.5t-10.5 -36.5q0 -22 10.5 -37.5t24.5 -15.5z" />
    <glyph glyph-name="guilsinglleft" unicode="&#x2039;" horiz-adv-x="317" 
d="M162 76l-122 147l122 147h100l-122 -147l122 -147h-100z" />
    <glyph glyph-name="guilsinglright" unicode="&#x203a;" horiz-adv-x="317" 
d="M55 76l122 147l-122 147h100l122 -147l-122 -147h-100z" />
    <glyph glyph-name="fraction" unicode="&#x2044;" horiz-adv-x="472" 
d="M-22 0l418 600h98l-418 -600h-98z" />
    <glyph glyph-name="Euro" unicode="&#x20ac;" horiz-adv-x="588" 
d="M194 206q25 -47 70.5 -74t100.5 -27q34 0 71 15.5t63 39.5v-133q-68 -35 -134 -35q-104 0 -184 59.5t-110 154.5h-62v63h49q0 5 -0.5 15.5t-0.5 15.5t0.5 15.5t0.5 15.5h-49v63h62q30 95 110 154.5t184 59.5q68 0 141 -38l-34 -110q-49 35 -107 35q-55 0 -100.5 -27
t-70.5 -74h257l-18 -63h-260q-2 -20 -2 -31t2 -31h241l-19 -63h-201z" />
    <glyph glyph-name="uni2113" unicode="&#x2113;" horiz-adv-x="483" 
d="M272 -5q-74 0 -115.5 37t-52.5 99q0 5 -1 8q-9 -6 -25.5 -18t-21.5 -16l-32 62q9 7 25 18.5t28.5 21t23.5 17.5v206q0 113 47 169t122 56q67 0 101.5 -43.5t34.5 -109.5q0 -74 -48 -145.5t-142 -153.5l1 -27q1 -41 25 -64t59 -23q36 0 68 23.5t55 57.5l50 -50
q-69 -125 -202 -125zM216 306q110 115 110 197q0 72 -51 72q-25 0 -42 -30.5t-17 -100.5v-138z" />
    <glyph glyph-name="trademark" unicode="&#x2122;" horiz-adv-x="668" 
d="M31 547v53h203v-53h-71v-227h-62v227h-70zM536 600h64v-280h-60v185l-94 -139l-94 139v-185h-61v280h67l88 -132z" />
    <glyph glyph-name="estimated" unicode="&#x212e;" horiz-adv-x="746" 
d="M372 -7q-142 0 -242 89.5t-100 216.5q0 128 100 218.5t242 90.5t242 -90.5t100 -218.5v-8h-553q-5 0 -5 -3v-168q0 -10 7 -19q89 -91 210 -91q132 0 221 102h48q-46 -55 -117.5 -87t-152.5 -32zM161 308h425q3 0 3 6v168q0 12 -8 20q-91 88 -208 88q-120 0 -209 -91
q-8 -8 -8 -21v-164q0 -6 5 -6z" />
    <glyph glyph-name="partialdiff" unicode="&#x2202;" horiz-adv-x="475" 
d="M135 570q126 29 214 -61.5t87 -246.5q-1 -111 -63.5 -186.5t-153.5 -75.5q-108 0 -153 70.5t-5 176.5q33 88 100.5 128t141.5 21q-25 65 -69 89t-99 -3v88zM324 262q0 30 -2 44q-49 27 -90.5 4.5t-67.5 -91.5q-20 -54 -3 -96.5t58 -42.5t72.5 54.5t32.5 127.5z" />
    <glyph glyph-name="emptyset" unicode="&#x2205;" horiz-adv-x="653" 
d="M511 384q55 -64 55 -151q0 -99 -70.5 -169t-169.5 -70q-86 0 -151 54l-35 -35l-33 33l35 35q-55 66 -55 152q0 99 70 169t169 70q85 0 152 -54l35 35l33 -34zM188 233q0 -45 25 -81l194 195q-36 25 -81 25q-58 0 -98 -40.5t-40 -98.5zM326 94q58 0 98.5 40t40.5 99
q0 44 -25 80l-194 -194q36 -25 80 -25z" />
    <glyph glyph-name="product" unicode="&#x220f;" horiz-adv-x="625" 
d="M586 562v-87h-51v-571h-87v571h-270v-571h-88v571h-51v87h547z" />
    <glyph glyph-name="summation" unicode="&#x2211;" horiz-adv-x="615" 
d="M71 -94v77l268 251l-268 250v78h473v-95h-314l243 -233l-243 -234h314v-95z" />
    <glyph glyph-name="minus" unicode="&#x2212;" horiz-adv-x="556" 
d="M47 207v85h462v-85h-462z" />
    <glyph glyph-name="radical" unicode="&#x221a;" horiz-adv-x="614" 
d="M199 -62l-86 265h-58v80h115l73 -222l266 555l73 -31l-310 -647h-73z" />
    <glyph glyph-name="infinity" unicode="&#x221e;" horiz-adv-x="643" 
d="M175 99q-55 0 -90.5 37.5t-37.5 96.5q2 59 37.5 96t90.5 37q71 0 147 -74q74 74 146 74q58 0 92 -35t36 -98q-2 -63 -36 -98.5t-92 -35.5q-71 0 -146 75q-75 -75 -147 -75zM175 179q41 0 93 54q-51 53 -93 53q-20 0 -34 -15t-14 -38q0 -24 14 -39t34 -15zM468 179
q21 0 34.5 14.5t13.5 39.5t-13.5 39t-34.5 14q-40 0 -93 -53q54 -54 93 -54z" />
    <glyph glyph-name="integral" unicode="&#x222b;" horiz-adv-x="389" 
d="M94 -151q-40 0 -57.5 31t-0.5 74h62q0 -3 -1 -10q-4 -26 3 -28l6 -1q10 0 13 14l92 584q6 34 32 57t60 23q40 0 57.5 -31t-0.5 -75h-62q1 5 2 13q3 24 -3 26l-5 1q-12 0 -15 -14l-92 -584q-5 -34 -31 -57t-60 -23z" />
    <glyph glyph-name="approxequal" unicode="&#x2248;" horiz-adv-x="491" 
d="M326 250q-13 0 -25.5 2t-23.5 7t-19 9.5t-17 12t-13 11t-11.5 11.5t-8.5 9q-17 17 -34 17q-46 -1 -48 -73h-88q2 74 37.5 117.5t99.5 43.5q62 0 106 -57q19 -24 38 -24q43 0 46 72h87q-2 -71 -34.5 -114.5t-91.5 -43.5zM326 71q-30 0 -57.5 14t-35.5 22t-25 26
q-16 17 -34 17q-46 -3 -48 -74h-88q2 75 38 119t99 44q59 0 106 -58q19 -25 38 -25q43 0 46 73h87q-2 -70 -35 -114t-91 -44z" />
    <glyph glyph-name="notequal" unicode="&#x2260;" horiz-adv-x="575" 
d="M527 252h-168l-68 -80h236v-80h-305l-72 -84h-69l72 84h-106v80h175l68 80h-243v80h312l65 76h69l-65 -76h99v-80z" />
    <glyph glyph-name="lessequal" unicode="&#x2264;" horiz-adv-x="632" 
d="M537 595v-104l-336 -142l336 -143v-105l-442 191v113zM95 0v72h442v-72h-442z" />
    <glyph glyph-name="greaterequal" unicode="&#x2265;" horiz-adv-x="632" 
d="M95 595l442 -190v-113l-442 -191v105l336 143l-336 142v104zM95 0v72h442v-72h-442z" />
    <glyph glyph-name="lozenge" unicode="&#x25ca;" horiz-adv-x="626" 
d="M313 42l-242 240l242 242l241 -241zM313 180l102 103l-102 102l-103 -103z" />
    <glyph glyph-name="uniF8FF" unicode="&#xf8ff;" horiz-adv-x="751" 
d="M375 0q-125 0 -214.5 89.5t-89.5 214.5q0 126 89.5 215t214.5 89q126 0 215 -89t89 -215q0 -125 -89 -214.5t-215 -89.5zM375 29q114 0 194.5 81t80.5 194q0 114 -80.5 194.5t-194.5 80.5q-113 0 -194 -80.5t-81 -194.5q0 -113 81 -194t194 -81zM534 174q-6 0 -9 4
l-116 116q-11 11 0 20l116 116q9 11 20 0q10 -10 0 -20l-106 -106l106 -106q8 -8 0 -20q-4 -4 -11 -4zM216 174q-14 0 -14 14v232q0 14 14 14t14 -14v-232q0 -14 -14 -14zM375 174q-14 0 -14 14v232q0 14 14 14q15 0 15 -14v-232q0 -14 -15 -14zM259 290q-14 0 -14 14t14 14
h73q14 0 14 -14t-14 -14h-73z" />
    <glyph glyph-name="i.loclTRK" horiz-adv-x="256" 
d="M128 451q-28 0 -49 20.5t-21 49.5t20.5 49.5t49.5 20.5t50 -20.5t21 -49.5t-21 -49.5t-50 -20.5zM64 0v400h128v-400h-128z" />
    </font>
</defs>
</svg>
